<?xml version="1.0" encoding="UTF-8" standalone="no"?>
<svg xmlns:dc="http://purl.org/dc/elements/1.1/" xmlns:cc="http://creativecommons.org/ns#" xmlns:rdf="http://www.w3.org/1999/02/22-rdf-syntax-ns#" xmlns:svg="http://www.w3.org/2000/svg" xmlns="http://www.w3.org/2000/svg" xmlns:sodipodi="http://sodipodi.sourceforge.net/DTD/sodipodi-0.dtd" xmlns:inkscape="http://www.inkscape.org/namespaces/inkscape" width="64" height="64" viewBox="0 0 64.000001 64.000001" id="svg7251" version="1.1" inkscape:version="0.91 r13725" sodipodi:docname="15.svg">
  <defs id="defs7253"/>
  <sodipodi:namedview id="base" pagecolor="#ffffff" bordercolor="#666666" borderopacity="1.0" inkscape:pageopacity="0.0" inkscape:pageshadow="2" inkscape:zoom="3.959798" inkscape:cx="84.244526" inkscape:cy="44.266664" inkscape:document-units="px" inkscape:current-layer="layer1" showgrid="true" units="px" inkscape:snap-bbox="true" inkscape:bbox-paths="true" inkscape:bbox-nodes="true" inkscape:snap-bbox-edge-midpoints="true" inkscape:snap-bbox-midpoints="true" inkscape:window-width="1366" inkscape:window-height="705" inkscape:window-x="-8" inkscape:window-y="-8" inkscape:window-maximized="1">
    <inkscape:grid type="xygrid" id="grid7259"/>
  </sodipodi:namedview>
  
  <g inkscape:label="Layer 1" inkscape:groupmode="layer" id="layer1" transform="translate(0,-988.36216)">
    <g transform="matrix(0.99731697,0,0,1,97.885376,-1310.0005)" id="g9020">
      <path inkscape:connector-curvature="0" id="path7424" d="m -64.359375,2319.7871 a 2.0002,2.0002 0 0 0 -0.378906,3.9453 l 6.851562,1.7188 1.681641,5.8906 a 2.0008484,2.0008484 0 1 0 3.847656,-1.0996 l -2,-7 a 2.0002,2.0002 0 0 0 -1.4375,-1.3906 l -7.970703,-2 a 2.0002,2.0002 0 0 0 -0.59375,-0.064 z" style="color:#000000;font-style:normal;font-variant:normal;font-weight:normal;font-stretch:normal;font-size:medium;line-height:normal;font-family:sans-serif;text-indent:0;text-align:start;text-decoration:none;text-decoration-line:none;text-decoration-style:solid;text-decoration-color:#000000;letter-spacing:normal;word-spacing:normal;text-transform:none;direction:ltr;block-progression:tb;writing-mode:lr-tb;baseline-shift:baseline;text-anchor:start;white-space:normal;clip-rule:nonzero;display:inline;overflow:visible;visibility:visible;opacity:1;isolation:auto;mix-blend-mode:normal;color-interpolation:sRGB;color-interpolation-filters:linearRGB;solid-color:#000000;solid-opacity:1;fill:#ffd6b6;fill-opacity:1;fill-rule:evenodd;stroke:none;stroke-width:4;stroke-linecap:round;stroke-linejoin:round;stroke-miterlimit:4;stroke-dasharray:none;stroke-dashoffset:0;stroke-opacity:1;color-rendering:auto;image-rendering:auto;shape-rendering:auto;text-rendering:auto;enable-background:accumulate"/>
      <path inkscape:connector-curvature="0" id="path7426" d="m -62.761719,2331.7578 a 2.50025,2.50025 0 0 0 -2.425781,3.209 l 2.847656,10.1426 a 2.50025,2.50025 0 0 0 0.251953,0.5918 l 5.804688,9.8593 a 2.50025,2.50025 0 1 0 4.308594,-2.5371 l -5.640625,-9.58 -2.757813,-9.8282 a 2.50025,2.50025 0 0 0 -2.388672,-1.8574 z" style="color:#000000;font-style:normal;font-variant:normal;font-weight:normal;font-stretch:normal;font-size:medium;line-height:normal;font-family:sans-serif;text-indent:0;text-align:start;text-decoration:none;text-decoration-line:none;text-decoration-style:solid;text-decoration-color:#000000;letter-spacing:normal;word-spacing:normal;text-transform:none;direction:ltr;block-progression:tb;writing-mode:lr-tb;baseline-shift:baseline;text-anchor:start;white-space:normal;clip-rule:nonzero;display:inline;overflow:visible;visibility:visible;opacity:1;isolation:auto;mix-blend-mode:normal;color-interpolation:sRGB;color-interpolation-filters:linearRGB;solid-color:#000000;solid-opacity:1;fill:#ffd6b6;fill-opacity:1;fill-rule:evenodd;stroke:none;stroke-width:5;stroke-linecap:round;stroke-linejoin:round;stroke-miterlimit:4;stroke-dasharray:none;stroke-dashoffset:0;stroke-opacity:1;color-rendering:auto;image-rendering:auto;shape-rendering:auto;text-rendering:auto;enable-background:accumulate"/>
      <path inkscape:connector-curvature="0" id="path7429" d="m -66.099609,2334.2988 a 2.50025,2.50025 0 0 0 -1.707032,0.7832 l -6.894531,7.1153 a 2.50025,2.50025 0 0 0 -0.519531,0.7949 l -3.634766,8.8945 a 2.5004357,2.5004357 0 1 0 4.628907,1.8926 l 3.453124,-8.4492 6.556641,-6.7676 a 2.50025,2.50025 0 0 0 -1.882812,-4.2637 z" style="color:#000000;font-style:normal;font-variant:normal;font-weight:normal;font-stretch:normal;font-size:medium;line-height:normal;font-family:sans-serif;text-indent:0;text-align:start;text-decoration:none;text-decoration-line:none;text-decoration-style:solid;text-decoration-color:#000000;letter-spacing:normal;word-spacing:normal;text-transform:none;direction:ltr;block-progression:tb;writing-mode:lr-tb;baseline-shift:baseline;text-anchor:start;white-space:normal;clip-rule:nonzero;display:inline;overflow:visible;visibility:visible;opacity:1;isolation:auto;mix-blend-mode:normal;color-interpolation:sRGB;color-interpolation-filters:linearRGB;solid-color:#000000;solid-opacity:1;fill:#ffd6b6;fill-opacity:1;fill-rule:evenodd;stroke:none;stroke-width:5;stroke-linecap:round;stroke-linejoin:round;stroke-miterlimit:4;stroke-dasharray:none;stroke-dashoffset:0;stroke-opacity:1;color-rendering:auto;image-rendering:auto;shape-rendering:auto;text-rendering:auto;enable-background:accumulate"/>
      <path inkscape:connector-curvature="0" id="rect7431" d="m -65.280685,2332.0874 4,0 c 1.108,0 2,0.8171 2,1.832 l 0,3.543 c 0,1.015 -0.892,1.8321 -2,1.8321 l -4,0 c -1.108,0 -2,-0.8171 -2,-1.8321 l 0,-3.543 c 0,-1.0149 0.892,-1.832 2,-1.832 z" style="fill:#354d62;fill-opacity:1;stroke:none;stroke-width:0.5;stroke-linecap:round;stroke-linejoin:round;stroke-miterlimit:4;stroke-dasharray:none;stroke-opacity:1"/>
      <path inkscape:connector-curvature="0" id="rect7436" d="m -1252.8809,1993.4247 3.0003,0 c 0.5538,0 0.9997,0.4458 0.9997,0.9997 l 0,2.0006 c 0,0.5539 -0.4459,0.9997 -0.9997,0.9997 l -3.0003,0 c -0.5539,0 -0.9997,-0.4458 -0.9997,-0.9997 l 0,-2.0006 c 0,-0.5539 0.4458,-0.9997 0.9997,-0.9997 z" style="fill:#d0e3eb;fill-opacity:1;stroke:none;stroke-width:4;stroke-opacity:1" transform="matrix(0.85910788,-0.51179454,0.51179454,0.85910788,0,0)"/>
      <path inkscape:connector-curvature="0" id="rect7438" d="m -1253.8806,1992.4247 4.9997,0 0,1 -4.9997,0 z" style="fill:#d0e3eb;fill-opacity:1;stroke:none;stroke-width:4;stroke-opacity:1" transform="matrix(0.85910788,-0.51179454,0.51179454,0.85910788,0,0)"/>
      <path inkscape:connector-curvature="0" id="rect7440" d="m -1253.8806,1993.4247 4.9997,0 0,1 -4.9997,0 z" style="fill:#273951;fill-opacity:1;stroke:none;stroke-width:4;stroke-opacity:1" transform="matrix(0.85910788,-0.51179454,0.51179454,0.85910788,0,0)"/>
      <path inkscape:connector-curvature="0" id="rect7444" d="m 830.76001,2202.1199 3.00033,0 c 0.554,0 1,0.446 1,1 l 0,2 c 0,0.554 -0.446,1 -1,1 l -3.00033,0 c -0.554,0 -1,-0.446 -1,-1 l 0,-2 c 0,-0.554 0.446,-1 1,-1 z" style="fill:#d0e3eb;fill-opacity:1;stroke:none;stroke-width:4;stroke-opacity:1" transform="matrix(0.92343062,0.38376542,-0.38376542,0.92343062,0,0)"/>
      <path inkscape:connector-curvature="0" id="rect7446" d="m 829.76001,2201.1199 5.00033,0 0,1 -5.00033,0 z" style="fill:#d0e3eb;fill-opacity:1;stroke:none;stroke-width:4;stroke-opacity:1" transform="matrix(0.92343062,0.38376542,-0.38376542,0.92343062,0,0)"/>
      <path inkscape:connector-curvature="0" id="rect7448" d="m 829.76001,2202.1199 5.00033,0 0,1 -5.00033,0 z" style="fill:#273951;fill-opacity:1;stroke:none;stroke-width:4;stroke-opacity:1" transform="matrix(0.92343062,0.38376542,-0.38376542,0.92343062,0,0)"/>
      <path sodipodi:nodetypes="ccccc" inkscape:connector-curvature="0" id="path7451" d="m -59.83887,2335.7751 -5.5735,1.549 1.78286,6.0055 5.52369,-1.705 z" style="color:#000000;font-style:normal;font-variant:normal;font-weight:normal;font-stretch:normal;font-size:medium;line-height:normal;font-family:sans-serif;text-indent:0;text-align:start;text-decoration:none;text-decoration-line:none;text-decoration-style:solid;text-decoration-color:#000000;letter-spacing:normal;word-spacing:normal;text-transform:none;direction:ltr;writing-mode:lr-tb;baseline-shift:baseline;text-anchor:start;white-space:normal;clip-rule:nonzero;display:inline;overflow:visible;visibility:visible;opacity:1;isolation:auto;mix-blend-mode:normal;color-interpolation:sRGB;color-interpolation-filters:linearRGB;solid-color:#000000;solid-opacity:1;fill:#354d62;fill-opacity:1;fill-rule:evenodd;stroke:none;stroke-width:5;stroke-linecap:round;stroke-linejoin:round;stroke-miterlimit:4;stroke-dasharray:none;stroke-dashoffset:0;stroke-opacity:1;color-rendering:auto;image-rendering:auto;shape-rendering:auto;text-rendering:auto;enable-background:accumulate"/>
      <path inkscape:connector-curvature="0" id="rect7453" d="m 1583.6554,1716.3074 5.7485,0 0,7.3369 -5.7485,0 z" style="fill:#354d62;fill-opacity:1;stroke:none;stroke-width:5;stroke-linecap:round;stroke-linejoin:round;stroke-miterlimit:4;stroke-dasharray:none;stroke-opacity:1" transform="matrix(0.71516294,0.69895778,-0.69895778,0.71516294,0,0)"/>
      <path inkscape:connector-curvature="0" id="path7455" d="m -64.900391,2312.6992 a 2.50025,2.50025 0 0 0 -2.548828,2.6914 l 0.375,5.9883 a 2.50025,2.50025 0 1 0 4.990235,-0.3125 l -0.375,-5.9883 a 2.50025,2.50025 0 0 0 -2.441407,-2.3789 z" style="color:#000000;font-style:normal;font-variant:normal;font-weight:normal;font-stretch:normal;font-size:medium;line-height:normal;font-family:sans-serif;text-indent:0;text-align:start;text-decoration:none;text-decoration-line:none;text-decoration-style:solid;text-decoration-color:#000000;letter-spacing:normal;word-spacing:normal;text-transform:none;direction:ltr;block-progression:tb;writing-mode:lr-tb;baseline-shift:baseline;text-anchor:start;white-space:normal;clip-rule:nonzero;display:inline;overflow:visible;visibility:visible;opacity:1;isolation:auto;mix-blend-mode:normal;color-interpolation:sRGB;color-interpolation-filters:linearRGB;solid-color:#000000;solid-opacity:1;fill:#ffd6b6;fill-opacity:1;fill-rule:evenodd;stroke:none;stroke-width:5;stroke-linecap:round;stroke-linejoin:round;stroke-miterlimit:4;stroke-dasharray:none;stroke-dashoffset:0;stroke-opacity:1;color-rendering:auto;image-rendering:auto;shape-rendering:auto;text-rendering:auto;enable-background:accumulate"/>
      <path inkscape:connector-curvature="0" id="rect7457" d="m -208.8616,2308.6641 c 2.216,0 4,1.784 4,4 l 0,8 c 0,2.216 -1.784,4 -4,4 -2.216,0 -4,-1.784 -4,-4 l 0,-8 c 0,-2.216 1.784,-4 4,-4 z" style="fill:#5acfd6;fill-opacity:1;stroke:none;stroke-width:0.5;stroke-linecap:round;stroke-linejoin:round;stroke-miterlimit:4;stroke-dasharray:none;stroke-opacity:1" transform="matrix(0.99804952,-0.06242725,0.06242725,0.99804952,0,0)"/>
      <path inkscape:connector-curvature="0" id="rect7459" d="m -212.8616,2315.6641 8,0 0,10.0025 -8,0 z" style="fill:#5acfd6;fill-opacity:1;stroke:none;stroke-width:0.5;stroke-linecap:round;stroke-linejoin:round;stroke-miterlimit:4;stroke-dasharray:none;stroke-opacity:1" transform="matrix(0.99804952,-0.06242725,0.06242725,0.99804952,0,0)"/>
      <path inkscape:connector-curvature="0" id="rect7461" d="m -208.8616,2310.1638 c 1.385,0 2.5,1.115 2.5,2.5 l 0,3.0902 c 0,1.385 -1.115,2.5 -2.5,2.5 -1.385,0 -2.5,-1.115 -2.5,-2.5 l 0,-3.0902 c 0,-1.385 1.115,-2.5 2.5,-2.5 z" style="fill:#ffd6b6;fill-opacity:1;stroke:none;stroke-width:0.5;stroke-linecap:round;stroke-linejoin:round;stroke-miterlimit:4;stroke-dasharray:none;stroke-opacity:1" transform="matrix(0.99804952,-0.06242725,0.06242725,0.99804952,0,0)"/>
      <path inkscape:connector-curvature="0" id="path7464" d="m -76.339844,2310.7676 a 2.0002,2.0002 0 0 0 -1.898437,2.7402 l 3.435547,9 a 2.0002,2.0002 0 0 0 1.86914,1.2871 l 8.125,0 a 2.0002,2.0002 0 1 0 0,-4 l -6.748047,0 -2.945312,-7.7148 a 2.0002,2.0002 0 0 0 -1.837891,-1.3125 z" style="color:#000000;font-style:normal;font-variant:normal;font-weight:normal;font-stretch:normal;font-size:medium;line-height:normal;font-family:sans-serif;text-indent:0;text-align:start;text-decoration:none;text-decoration-line:none;text-decoration-style:solid;text-decoration-color:#000000;letter-spacing:normal;word-spacing:normal;text-transform:none;direction:ltr;block-progression:tb;writing-mode:lr-tb;baseline-shift:baseline;text-anchor:start;white-space:normal;clip-rule:nonzero;display:inline;overflow:visible;visibility:visible;opacity:1;isolation:auto;mix-blend-mode:normal;color-interpolation:sRGB;color-interpolation-filters:linearRGB;solid-color:#000000;solid-opacity:1;fill:#ffd6b6;fill-opacity:1;fill-rule:evenodd;stroke:none;stroke-width:4;stroke-linecap:round;stroke-linejoin:round;stroke-miterlimit:4;stroke-dasharray:none;stroke-dashoffset:0;stroke-opacity:1;color-rendering:auto;image-rendering:auto;shape-rendering:auto;text-rendering:auto;enable-background:accumulate"/>
      <path inkscape:connector-curvature="0" id="path7469" d="m -67.39955,2314.0963 a 2.50025,2.50025 0 0 0 -0.079,0.8327 l 0.11876,1.8986 c 0.61175,0.3086 1.302,0.4802 2.0311,0.4347 l 0.99804,-0.062 c 0.7291,-0.046 1.39258,-0.3019 1.9611,-0.6844 l -0.11875,-1.8985 a 2.50025,2.50025 0 0 0 -0.18218,-0.8165 c -0.23243,0.7766 -0.91446,1.3489 -1.78502,1.4033 l -0.99805,0.062 c -0.87057,0.054 -1.61859,-0.4284 -1.94597,-1.1698 z" style="color:#000000;font-style:normal;font-variant:normal;font-weight:normal;font-stretch:normal;font-size:medium;line-height:normal;font-family:sans-serif;text-indent:0;text-align:start;text-decoration:none;text-decoration-line:none;text-decoration-style:solid;text-decoration-color:#000000;letter-spacing:normal;word-spacing:normal;text-transform:none;direction:ltr;writing-mode:lr-tb;baseline-shift:baseline;text-anchor:start;white-space:normal;clip-rule:nonzero;display:inline;overflow:visible;visibility:visible;opacity:1;isolation:auto;mix-blend-mode:normal;color-interpolation:sRGB;color-interpolation-filters:linearRGB;solid-color:#000000;solid-opacity:1;fill:#ffcaa0;fill-opacity:1;fill-rule:evenodd;stroke:none;stroke-width:5;stroke-linecap:round;stroke-linejoin:round;stroke-miterlimit:4;stroke-dasharray:none;stroke-dashoffset:0;stroke-opacity:1;color-rendering:auto;image-rendering:auto;shape-rendering:auto;text-rendering:auto;enable-background:accumulate"/>
      <path style="fill:#ffd6b6;fill-opacity:1" inkscape:connector-curvature="0" id="path7472" class="st3" d="m -61.08578,2305.0842 0.38298,6.1228 c 0.16393,2.6209 -1.82773,4.8783 -4.4485,5.0422 l -0.37963,0.024 c -2.62078,0.1639 -4.87821,-1.8277 -5.04214,-4.4486 l -0.38298,-6.1228" sodipodi:nodetypes="cssssc"/>
      <path sodipodi:nodetypes="cscsssccsssscc" style="fill:#273951;fill-opacity:1" inkscape:connector-curvature="0" id="path7474" class="st6" d="m -68.35245,2303.3578 -1.28077,0.08 c -0.70313,0.044 -1.30613,-0.4443 -1.35681,-1.1455 -0.71652,0.135 -1.23469,0.8274 -1.18798,1.574 l 0.16333,2.6112 c 0.0505,0.8084 0.74156,1.3375 1.54997,1.287 l 2.56157,-0.1603 1.64674,-0.103 4.75757,-0.2976 c 0.30315,-0.019 0.53856,-0.1998 0.51968,-0.5018 l -0.18651,-2.9817 c -0.0252,-0.4028 -0.37827,-0.7883 -0.78246,-0.763 l -3.84273,0.2403 z"/>
      <path inkscape:connector-curvature="0" id="path7477" d="m -63.61304,2305.2415 c -0.43294,0.5981 -0.68059,1.3362 -0.63069,2.134 l 0.206,3.2935 c 0.0987,1.5783 1.28221,2.8175 2.78034,3.0505 0.39701,-0.7486 0.61215,-1.6044 0.55536,-2.5123 l -0.38303,-6.1238 z" style="fill:#273951;fill-opacity:1;stroke:none;stroke-width:5;stroke-linecap:round;stroke-linejoin:round;stroke-miterlimit:4;stroke-dasharray:none;stroke-opacity:1"/>
      <path inkscape:connector-curvature="0" id="circle7479" d="m -207.06157,2301.0645 a 1.0999637,1.0999637 0 0 1 -1.09996,1.0999 1.0999637,1.0999637 0 0 1 -1.09996,-1.0999 1.0999637,1.0999637 0 0 1 1.09996,-1.1 1.0999637,1.0999637 0 0 1 1.09996,1.1 z" style="fill:#ffd6b6;fill-opacity:1;stroke:none;stroke-width:5;stroke-linecap:round;stroke-linejoin:round;stroke-miterlimit:4;stroke-dasharray:none;stroke-opacity:1" transform="matrix(0.99804952,-0.06242725,0.06242725,0.99804952,0,0)"/>
      <path inkscape:connector-curvature="0" id="path7481" d="m -70.65898,2310.532 1.09783,-0.069" style="fill:none;fill-rule:evenodd;stroke:#273951;stroke-width:1.10144222px;stroke-linecap:butt;stroke-linejoin:miter;stroke-opacity:1"/>
      <path inkscape:connector-curvature="0" id="rect7483" d="m -214.76129,2298.8645 9.89967,0 0,1.1 -9.89967,0 z" style="fill:#ffffff;fill-opacity:1;stroke:none;stroke-width:5;stroke-linecap:round;stroke-linejoin:round;stroke-miterlimit:4;stroke-dasharray:none;stroke-opacity:1" transform="matrix(0.99804952,-0.06242725,0.06242725,0.99804952,0,0)"/>
    </g>
  </g>

	<metadata>
		<rdf:RDF xmlns:rdf="http://www.w3.org/1999/02/22-rdf-syntax-ns#" xmlns:rdfs="http://www.w3.org/2000/01/rdf-schema#" xmlns:dc="http://purl.org/dc/elements/1.1/">
			<rdf:Description about="https://iconscout.com/legal#licenses" dc:title="15" dc:description="15" dc:publisher="Iconscout" dc:date="2017-03-06" dc:format="image/svg+xml" dc:language="en">
				<dc:creator>
					<rdf:Bag>
						<rdf:li>Jemis Mali</rdf:li>
					</rdf:Bag>
				</dc:creator>
			</rdf:Description>
		</rdf:RDF>
    </metadata></svg>
