<?xml version="1.0" encoding="UTF-8" standalone="no"?>
<svg xmlns:dc="http://purl.org/dc/elements/1.1/" xmlns:cc="http://creativecommons.org/ns#" xmlns:rdf="http://www.w3.org/1999/02/22-rdf-syntax-ns#" xmlns:svg="http://www.w3.org/2000/svg" xmlns="http://www.w3.org/2000/svg" xmlns:sodipodi="http://sodipodi.sourceforge.net/DTD/sodipodi-0.dtd" xmlns:inkscape="http://www.inkscape.org/namespaces/inkscape" width="64" height="64" viewBox="0 0 64.000001 64.000001" id="svg7251" version="1.1" inkscape:version="0.91 r13725" sodipodi:docname="16.svg">
  <defs id="defs7253"/>
  <sodipodi:namedview id="base" pagecolor="#ffffff" bordercolor="#666666" borderopacity="1.0" inkscape:pageopacity="0.0" inkscape:pageshadow="2" inkscape:zoom="5.6" inkscape:cx="10.932955" inkscape:cy="46.296258" inkscape:document-units="px" inkscape:current-layer="layer1" showgrid="true" units="px" inkscape:snap-bbox="true" inkscape:bbox-paths="true" inkscape:bbox-nodes="true" inkscape:snap-bbox-edge-midpoints="true" inkscape:snap-bbox-midpoints="true" inkscape:window-width="1366" inkscape:window-height="705" inkscape:window-x="-8" inkscape:window-y="-8" inkscape:window-maximized="1">
    <inkscape:grid type="xygrid" id="grid7259"/>
  </sodipodi:namedview>
  
  <g inkscape:label="Layer 1" inkscape:groupmode="layer" id="layer1" transform="translate(0,-988.36216)">
    <g transform="matrix(1.001529,0,0,1,333.18432,-1369.7679)" id="g9166">
      <path inkscape:connector-curvature="0" id="path7290" d="m -294.98438,2390.5547 -1.77148,4.6758 18.70117,7.0879 1.77344,-4.6758 -18.70313,-7.0879 z" style="color:#000000;font-style:normal;font-variant:normal;font-weight:normal;font-stretch:normal;font-size:medium;line-height:normal;font-family:sans-serif;text-indent:0;text-align:start;text-decoration:none;text-decoration-line:none;text-decoration-style:solid;text-decoration-color:#000000;letter-spacing:normal;word-spacing:normal;text-transform:none;direction:ltr;block-progression:tb;writing-mode:lr-tb;baseline-shift:baseline;text-anchor:start;white-space:normal;clip-rule:nonzero;display:inline;overflow:visible;visibility:visible;opacity:1;isolation:auto;mix-blend-mode:normal;color-interpolation:sRGB;color-interpolation-filters:linearRGB;solid-color:#000000;solid-opacity:1;fill:#ffd6b6;fill-opacity:1;fill-rule:evenodd;stroke:none;stroke-width:5;stroke-linecap:butt;stroke-linejoin:miter;stroke-miterlimit:4;stroke-dasharray:none;stroke-dashoffset:0;stroke-opacity:1;color-rendering:auto;image-rendering:auto;shape-rendering:auto;text-rendering:auto;enable-background:accumulate"/>
      <path sodipodi:nodetypes="cc" inkscape:connector-curvature="0" id="path7292" d="m -307.67161,2387.3487 -5.6103,-2.127" style="fill:none;fill-rule:evenodd;stroke:#ffd6b6;stroke-width:4.99618196;stroke-linecap:round;stroke-linejoin:round;stroke-miterlimit:4;stroke-dasharray:none;stroke-opacity:1"/>
      <path inkscape:connector-curvature="0" id="rect7294" d="m -2342.9119,568.46796 4,0 c 1.108,0 2,0.892 2,2 l 0,4.00254 c 0,1.108 -0.892,2 -2,2 l -4,0 c -1.108,0 -2,-0.892 -2,-2 l 0,-4.00254 c 0,-1.108 0.892,-2 2,-2 z" style="fill:#354d62;fill-opacity:1;stroke:none;stroke-width:0.5;stroke-linecap:round;stroke-linejoin:round;stroke-miterlimit:4;stroke-dasharray:none;stroke-opacity:1" transform="matrix(0.35443722,-0.93507981,0.93507981,0.35443722,0,0)"/>
      <path inkscape:connector-curvature="0" id="rect7296" d="m -2340.9119,554.46796 c 2.216,0 4,1.784 4,4 l 0,8 c 0,2.216 -1.784,4 -4,4 -2.216,0 -4,-1.784 -4,-4 l 0,-8 c 0,-2.216 1.784,-4 4,-4 z" style="fill:#5acfd6;fill-opacity:1;stroke:none;stroke-width:0.5;stroke-linecap:round;stroke-linejoin:round;stroke-miterlimit:4;stroke-dasharray:none;stroke-opacity:1" transform="matrix(0.35443722,-0.93507981,0.93507981,0.35443722,0,0)"/>
      <path inkscape:connector-curvature="0" id="rect7298" d="m -2343.9121,590.46796 3,0 c 0.554,0 1,0.446 1,1 l 0,2.00002 c 0,0.554 -0.446,1 -1,1 l -3,0 c -0.554,0 -1,-0.446 -1,-1 l 0,-2.00002 c 0,-0.554 0.446,-1 1,-1 z" style="fill:#d0e3eb;fill-opacity:1;stroke:none;stroke-width:4;stroke-opacity:1" transform="matrix(0.35443722,-0.93507981,0.93507981,0.35443722,0,0)"/>
      <path inkscape:connector-curvature="0" id="rect7300" d="m -2344.9121,589.46796 5,0 0,0.99997 -5,0 z" style="fill:#d0e3eb;fill-opacity:1;stroke:none;stroke-width:4;stroke-opacity:1" transform="matrix(0.35443722,-0.93507981,0.93507981,0.35443722,0,0)"/>
      <path inkscape:connector-curvature="0" id="rect7302" d="m -2344.9121,590.46796 5,0 0,0.99997 -5,0 z" style="fill:#273951;fill-opacity:1;stroke:none;stroke-width:4;stroke-opacity:1" transform="matrix(0.35443722,-0.93507981,0.93507981,0.35443722,0,0)"/>
      <path inkscape:connector-curvature="0" id="rect7304" d="m -2344.9119,561.46796 8,0 0,10.00254 -8,0 z" style="fill:#5acfd6;fill-opacity:1;stroke:none;stroke-width:0.5;stroke-linecap:round;stroke-linejoin:round;stroke-miterlimit:4;stroke-dasharray:none;stroke-opacity:1" transform="matrix(0.35443722,-0.93507981,0.93507981,0.35443722,0,0)"/>
      <path inkscape:connector-curvature="0" id="rect7306" d="m -2340.9119,555.96771 c 1.385,0 2.5,1.115 2.5,2.5 l 0,3.09017 c 0,1.385 -1.115,2.5 -2.5,2.5 -1.385,0 -2.5,-1.115 -2.5,-2.5 l 0,-3.09017 c 0,-1.385 1.115,-2.5 2.5,-2.5 z" style="fill:#ffd6b6;fill-opacity:1;stroke:none;stroke-width:0.5;stroke-linecap:round;stroke-linejoin:round;stroke-miterlimit:4;stroke-dasharray:none;stroke-opacity:1" transform="matrix(0.35443722,-0.93507981,0.93507981,0.35443722,0,0)"/>
      <path inkscape:connector-curvature="0" id="path7308" d="m -307.125,2385.8047 a 2.0002,2.0002 0 0 0 -1.9707,2.0293 l 0,13.2676 a 2.0002,2.0002 0 1 0 4,0 l 0,-13.2676 a 2.0002,2.0002 0 0 0 -2.0293,-2.0293 z" style="color:#000000;font-style:normal;font-variant:normal;font-weight:normal;font-stretch:normal;font-size:medium;line-height:normal;font-family:sans-serif;text-indent:0;text-align:start;text-decoration:none;text-decoration-line:none;text-decoration-style:solid;text-decoration-color:#000000;letter-spacing:normal;word-spacing:normal;text-transform:none;direction:ltr;block-progression:tb;writing-mode:lr-tb;baseline-shift:baseline;text-anchor:start;white-space:normal;clip-rule:nonzero;display:inline;overflow:visible;visibility:visible;opacity:1;isolation:auto;mix-blend-mode:normal;color-interpolation:sRGB;color-interpolation-filters:linearRGB;solid-color:#000000;solid-opacity:1;fill:#ffd6b6;fill-opacity:1;fill-rule:evenodd;stroke:none;stroke-width:4;stroke-linecap:round;stroke-linejoin:round;stroke-miterlimit:4;stroke-dasharray:none;stroke-dashoffset:0;stroke-opacity:1;color-rendering:auto;image-rendering:auto;shape-rendering:auto;text-rendering:auto;enable-background:accumulate"/>
      <path style="color:#000000;font-style:normal;font-variant:normal;font-weight:normal;font-stretch:normal;font-size:medium;line-height:normal;font-family:sans-serif;text-indent:0;text-align:start;text-decoration:none;text-decoration-line:none;text-decoration-style:solid;text-decoration-color:#000000;letter-spacing:normal;word-spacing:normal;text-transform:none;direction:ltr;writing-mode:lr-tb;baseline-shift:baseline;text-anchor:start;white-space:normal;clip-rule:nonzero;display:inline;overflow:visible;visibility:visible;opacity:1;isolation:auto;mix-blend-mode:normal;color-interpolation:sRGB;color-interpolation-filters:linearRGB;solid-color:#000000;solid-opacity:1;fill:#ffcaa0;fill-opacity:1;fill-rule:evenodd;stroke:none;stroke-width:5;stroke-linecap:round;stroke-linejoin:round;stroke-miterlimit:4;stroke-dasharray:none;stroke-dashoffset:0;stroke-opacity:1;color-rendering:auto;image-rendering:auto;shape-rendering:auto;text-rendering:auto;enable-background:accumulate" d="m -315.32702,2386.9806 a 2.50025,2.50025 0 0 0 0.72618,0.4152 l 1.7788,0.6743 c 0.5333,-0.4302 0.97416,-0.9884 1.23308,-1.6715 l 0.35444,-0.9351 c 0.25892,-0.6831 0.29882,-1.3932 0.18467,-2.0688 l -1.7788,-0.6743 a 2.50025,2.50025 0 0 0 -0.81895,-0.1705 c 0.61173,0.5318 0.85209,1.3891 0.54292,2.2047 l -0.35444,0.9351 c -0.30916,0.8157 -1.05737,1.2982 -1.8679,1.2909 z" id="path7310" inkscape:connector-curvature="0"/>
      <path sodipodi:nodetypes="cssssc" d="m -321.03963,2377.4747 5.79488,2.1965 c 2.48039,0.9402 3.72894,3.713 2.78877,6.1934 l -0.13619,0.3593 c -0.94017,2.4804 -3.71303,3.729 -6.19342,2.7888 l -5.79488,-2.1965" class="st3" id="path7312" inkscape:connector-curvature="0" style="fill:#ffd6b6;fill-opacity:1"/>
      <path d="m -325.50455,2383.4234 -0.45486,1.2001 c -0.24972,0.6587 -0.94315,1.0069 -1.60292,0.7641 -0.17232,0.7086 0.24499,1.4661 0.94453,1.7312 l 2.44654,0.9274 c 0.75751,0.2871 1.52437,-0.1245 1.81148,-0.8819 l 0.90973,-2.4001 0.58484,-1.5429 1.68964,-4.4577 c 0.10767,-0.284 0.04,-0.573 -0.24304,-0.6803 l -2.79365,-1.0589 c -0.3774,-0.1431 -0.87425,0.02 -1.0178,0.3985 l -1.36474,3.6004 z" class="st6" id="path7314" inkscape:connector-curvature="0" style="fill:#273951;fill-opacity:1" sodipodi:nodetypes="cscsssccsssscc"/>
      <path style="fill:#273951;fill-opacity:1;stroke:none;stroke-width:5;stroke-linecap:round;stroke-linejoin:round;stroke-miterlimit:4;stroke-dasharray:none;stroke-opacity:1" d="m -321.83477,2379.8814 c 0.36642,0.6409 0.93685,1.1708 1.68435,1.4541 l 3.08586,1.1697 c 1.47883,0.5605 3.09579,-0.01 3.92545,-1.2762 -0.51849,-0.6702 -1.20966,-1.219 -2.0602,-1.5414 l -5.73765,-2.1748 z" id="path7316" inkscape:connector-curvature="0"/>
      <path inkscape:connector-curvature="0" id="circle7318" d="m -2339.1119,546.86786 a 1.1000206,1.1000206 0 0 1 -1.1,1.10002 1.1000206,1.1000206 0 0 1 -1.1,-1.10002 1.1000206,1.1000206 0 0 1 1.1,-1.10002 1.1000206,1.1000206 0 0 1 1.1,1.10002 z" style="fill:#ffd6b6;fill-opacity:1;stroke:none;stroke-width:5;stroke-linecap:round;stroke-linejoin:round;stroke-miterlimit:4;stroke-dasharray:none;stroke-opacity:1" transform="matrix(0.35443722,-0.93507981,0.93507981,0.35443722,0,0)"/>
      <path style="fill:none;fill-rule:evenodd;stroke:#273951;stroke-width:1.11029112px;stroke-linecap:butt;stroke-linejoin:miter;stroke-opacity:1" d="m -320.01086,2388.5537 0.39383,-1.039" id="path7320" inkscape:connector-curvature="0"/>
      <path inkscape:connector-curvature="0" id="rect7322" d="m -2346.9121,544.66779 10.0002,0 0,1.10002 -10.0002,0 z" style="fill:#ffffff;fill-opacity:1;stroke:none;stroke-width:5;stroke-linecap:round;stroke-linejoin:round;stroke-miterlimit:4;stroke-dasharray:none;stroke-opacity:1" transform="matrix(0.35443722,-0.93507981,0.93507981,0.35443722,0,0)"/>
      <path inkscape:connector-curvature="0" id="rect7324" d="m -2344.9121,573.46796 5,0 0,7 -5,0 z" style="fill:#354d62;fill-opacity:1;stroke:none;stroke-width:5;stroke-linecap:round;stroke-linejoin:round;stroke-miterlimit:4;stroke-dasharray:none;stroke-opacity:1" transform="matrix(0.35443722,-0.93507981,0.93507981,0.35443722,0,0)"/>
    </g>
  </g>

	<metadata>
		<rdf:RDF xmlns:rdf="http://www.w3.org/1999/02/22-rdf-syntax-ns#" xmlns:rdfs="http://www.w3.org/2000/01/rdf-schema#" xmlns:dc="http://purl.org/dc/elements/1.1/">
			<rdf:Description about="https://iconscout.com/legal#licenses" dc:title="16" dc:description="16" dc:publisher="Iconscout" dc:date="2017-03-06" dc:format="image/svg+xml" dc:language="en">
				<dc:creator>
					<rdf:Bag>
						<rdf:li>Jemis Mali</rdf:li>
					</rdf:Bag>
				</dc:creator>
			</rdf:Description>
		</rdf:RDF>
    </metadata></svg>
