<?xml version="1.0" encoding="UTF-8" standalone="no"?>
<svg xmlns:dc="http://purl.org/dc/elements/1.1/" xmlns:cc="http://creativecommons.org/ns#" xmlns:rdf="http://www.w3.org/1999/02/22-rdf-syntax-ns#" xmlns:svg="http://www.w3.org/2000/svg" xmlns="http://www.w3.org/2000/svg" xmlns:sodipodi="http://sodipodi.sourceforge.net/DTD/sodipodi-0.dtd" xmlns:inkscape="http://www.inkscape.org/namespaces/inkscape" width="64" height="64" viewBox="0 0 64.000001 64.000001" id="svg7251" version="1.1" inkscape:version="0.91 r13725" sodipodi:docname="17.svg">
  <defs id="defs7253"/>
  <sodipodi:namedview id="base" pagecolor="#ffffff" bordercolor="#666666" borderopacity="1.0" inkscape:pageopacity="0.0" inkscape:pageshadow="2" inkscape:zoom="7.9195959" inkscape:cx="30.55056" inkscape:cy="42.09954" inkscape:document-units="px" inkscape:current-layer="layer1" showgrid="true" units="px" inkscape:snap-bbox="true" inkscape:bbox-paths="true" inkscape:bbox-nodes="true" inkscape:snap-bbox-edge-midpoints="true" inkscape:snap-bbox-midpoints="true" inkscape:window-width="1366" inkscape:window-height="705" inkscape:window-x="-8" inkscape:window-y="-8" inkscape:window-maximized="1">
    <inkscape:grid type="xygrid" id="grid7259"/>
  </sodipodi:namedview>
  
  <g inkscape:label="Layer 1" inkscape:groupmode="layer" id="layer1" transform="translate(0,-988.36216)">
    <g transform="matrix(0.99651555,0,0,1,268.93448,-1369.5081)" id="g9256">
      <path inkscape:connector-curvature="0" id="path7379" d="m -243.51533,2375.8042 12,0" style="fill:none;stroke:#273951;stroke-width:2.00349355;stroke-linecap:round;stroke-linejoin:round;stroke-miterlimit:4;stroke-dasharray:none;stroke-opacity:1"/>
      <path inkscape:connector-curvature="0" id="path7381" d="m -235.60742,2373.3555 a 2.0002,2.0002 0 0 0 -1.64063,3.0234 l 6.98633,12.0996 a 2.0003197,2.0003197 0 1 0 3.46484,-2 l -6.98632,-12.0996 a 2.0002,2.0002 0 0 0 -1.82422,-1.0234 z" style="color:#000000;font-style:normal;font-variant:normal;font-weight:normal;font-stretch:normal;font-size:medium;line-height:normal;font-family:sans-serif;text-indent:0;text-align:start;text-decoration:none;text-decoration-line:none;text-decoration-style:solid;text-decoration-color:#000000;letter-spacing:normal;word-spacing:normal;text-transform:none;direction:ltr;block-progression:tb;writing-mode:lr-tb;baseline-shift:baseline;text-anchor:start;white-space:normal;clip-rule:nonzero;display:inline;overflow:visible;visibility:visible;opacity:1;isolation:auto;mix-blend-mode:normal;color-interpolation:sRGB;color-interpolation-filters:linearRGB;solid-color:#000000;solid-opacity:1;fill:#ffd6b6;fill-opacity:1;fill-rule:evenodd;stroke:none;stroke-width:4;stroke-linecap:round;stroke-linejoin:round;stroke-miterlimit:4;stroke-dasharray:none;stroke-dashoffset:0;stroke-opacity:1;color-rendering:auto;image-rendering:auto;shape-rendering:auto;text-rendering:auto;enable-background:accumulate"/>
      <path inkscape:connector-curvature="0" id="path7383" d="m -235.60713,2373.357 a 2.0002,2.0002 0 0 0 -1.67578,1.0391 c 0.2517,0.071 0.47119,0.2356 0.60352,0.4726 a 1.0001,1.0001 0 0 0 0.008,0.012 l 6.98633,12.0996 c 0.20835,0.361 0.19621,0.5824 0.125,0.7969 -0.0712,0.2144 -0.25154,0.4314 -0.49219,0.5703 -0.0753,0.043 -0.15652,0.061 -0.23633,0.086 l 0.0274,0.047 a 2.0003197,2.0003197 0 0 0 1.95898,0.9844 c 0.27715,-0.2997 0.50433,-0.6501 0.64063,-1.0606 0.2451,-0.738 0.16534,-1.6337 -0.29297,-2.4277 l -6.97852,-12.0879 -0.002,0 c -0.10612,-0.1896 -0.2361,-0.3606 -0.37696,-0.5195 a 2.0002,2.0002 0 0 0 -0.29492,-0.012 z" style="color:#000000;font-style:normal;font-variant:normal;font-weight:normal;font-stretch:normal;font-size:medium;line-height:normal;font-family:sans-serif;text-indent:0;text-align:start;text-decoration:none;text-decoration-line:none;text-decoration-style:solid;text-decoration-color:#000000;letter-spacing:normal;word-spacing:normal;text-transform:none;direction:ltr;writing-mode:lr-tb;baseline-shift:baseline;text-anchor:start;white-space:normal;clip-rule:nonzero;display:inline;overflow:visible;visibility:visible;opacity:1;isolation:auto;mix-blend-mode:normal;color-interpolation:sRGB;color-interpolation-filters:linearRGB;solid-color:#000000;solid-opacity:1;fill:#ffcaa0;fill-opacity:1;fill-rule:evenodd;stroke:none;stroke-width:2;stroke-linecap:round;stroke-linejoin:round;stroke-miterlimit:4;stroke-dasharray:none;stroke-dashoffset:0;stroke-opacity:1;color-rendering:auto;image-rendering:auto;shape-rendering:auto;text-rendering:auto;enable-background:accumulate"/>
      <path inkscape:connector-curvature="0" id="path7385" d="m -243.29688,2391.4043 -17.32031,10 2.5,4.332 17.32031,-10 -2.5,-4.332 z" style="color:#000000;font-style:normal;font-variant:normal;font-weight:normal;font-stretch:normal;font-size:medium;line-height:normal;font-family:sans-serif;text-indent:0;text-align:start;text-decoration:none;text-decoration-line:none;text-decoration-style:solid;text-decoration-color:#000000;letter-spacing:normal;word-spacing:normal;text-transform:none;direction:ltr;block-progression:tb;writing-mode:lr-tb;baseline-shift:baseline;text-anchor:start;white-space:normal;clip-rule:nonzero;display:inline;overflow:visible;visibility:visible;opacity:1;isolation:auto;mix-blend-mode:normal;color-interpolation:sRGB;color-interpolation-filters:linearRGB;solid-color:#000000;solid-opacity:1;fill:#ffd6b6;fill-opacity:1;fill-rule:evenodd;stroke:none;stroke-width:5;stroke-linecap:butt;stroke-linejoin:miter;stroke-miterlimit:4;stroke-dasharray:none;stroke-dashoffset:0;stroke-opacity:1;color-rendering:auto;image-rendering:auto;shape-rendering:auto;text-rendering:auto;enable-background:accumulate"/>
      <path inkscape:connector-curvature="0" id="path7387" d="m -224.98047,2382.4199 a 2.50025,2.50025 0 0 0 -1.36133,0.3516 l -5.19726,3 a 2.50025,2.50025 0 1 0 2.5,4.3301 l 5.19726,-3 a 2.50025,2.50025 0 0 0 -1.13867,-4.6817 z" style="color:#000000;font-style:normal;font-variant:normal;font-weight:normal;font-stretch:normal;font-size:medium;line-height:normal;font-family:sans-serif;text-indent:0;text-align:start;text-decoration:none;text-decoration-line:none;text-decoration-style:solid;text-decoration-color:#000000;letter-spacing:normal;word-spacing:normal;text-transform:none;direction:ltr;block-progression:tb;writing-mode:lr-tb;baseline-shift:baseline;text-anchor:start;white-space:normal;clip-rule:nonzero;display:inline;overflow:visible;visibility:visible;opacity:1;isolation:auto;mix-blend-mode:normal;color-interpolation:sRGB;color-interpolation-filters:linearRGB;solid-color:#000000;solid-opacity:1;fill:#ffd6b6;fill-opacity:1;fill-rule:evenodd;stroke:none;stroke-width:5;stroke-linecap:round;stroke-linejoin:round;stroke-miterlimit:4;stroke-dasharray:none;stroke-dashoffset:0;stroke-opacity:1;color-rendering:auto;image-rendering:auto;shape-rendering:auto;text-rendering:auto;enable-background:accumulate"/>
      <path inkscape:connector-curvature="0" id="rect7389" d="m 1951.3695,1403.4039 4,0 c 1.108,0 2,0.892 2,2 l 0,4.0026 c 0,1.108 -0.892,2 -2,2 l -4,0 c -1.108,0 -2,-0.892 -2,-2 l 0,-4.0026 c 0,-1.108 0.892,-2 2,-2 z" style="fill:#354d62;fill-opacity:1;stroke:none;stroke-width:0.5;stroke-linecap:round;stroke-linejoin:round;stroke-miterlimit:4;stroke-dasharray:none;stroke-opacity:1" transform="matrix(0.5,0.8660254,-0.8660254,0.5,0,0)"/>
      <path inkscape:connector-curvature="0" id="rect7391" d="m 1953.3695,1389.4039 c 2.216,0 4,1.784 4,4 l 0,8 c 0,2.216 -1.784,4 -4,4 -2.216,0 -4,-1.784 -4,-4 l 0,-8 c 0,-2.216 1.784,-4 4,-4 z" style="fill:#5acfd6;fill-opacity:1;stroke:none;stroke-width:0.5;stroke-linecap:round;stroke-linejoin:round;stroke-miterlimit:4;stroke-dasharray:none;stroke-opacity:1" transform="matrix(0.5,0.8660254,-0.8660254,0.5,0,0)"/>
      <path inkscape:connector-curvature="0" id="rect7393" d="m 1950.3693,1425.4039 3,0 c 0.554,0 1,0.446 1,1 l 0,2.0001 c 0,0.554 -0.446,1 -1,1 l -3,0 c -0.554,0 -1,-0.446 -1,-1 l 0,-2.0001 c 0,-0.554 0.446,-1 1,-1 z" style="fill:#d0e3eb;fill-opacity:1;stroke:none;stroke-width:4;stroke-opacity:1" transform="matrix(0.5,0.8660254,-0.8660254,0.5,0,0)"/>
      <path inkscape:connector-curvature="0" id="rect7395" d="m 1949.3693,1424.4039 5,0 0,1 -5,0 z" style="fill:#d0e3eb;fill-opacity:1;stroke:none;stroke-width:4;stroke-opacity:1" transform="matrix(0.5,0.8660254,-0.8660254,0.5,0,0)"/>
      <path inkscape:connector-curvature="0" id="rect7397" d="m 1949.3693,1425.4039 5,0 0,1 -5,0 z" style="fill:#273951;fill-opacity:1;stroke:none;stroke-width:4;stroke-opacity:1" transform="matrix(0.5,0.8660254,-0.8660254,0.5,0,0)"/>
      <path inkscape:connector-curvature="0" id="rect7399" d="m 1949.3695,1396.4039 8,0 0,10.0026 -8,0 z" style="fill:#5acfd6;fill-opacity:1;stroke:none;stroke-width:0.5;stroke-linecap:round;stroke-linejoin:round;stroke-miterlimit:4;stroke-dasharray:none;stroke-opacity:1" transform="matrix(0.5,0.8660254,-0.8660254,0.5,0,0)"/>
      <path inkscape:connector-curvature="0" id="rect7401" d="m 1953.3695,1390.9037 c 1.385,0 2.5,1.115 2.5,2.5 l 0,3.0902 c 0,1.385 -1.115,2.5 -2.5,2.5 -1.385,0 -2.5,-1.115 -2.5,-2.5 l 0,-3.0902 c 0,-1.385 1.115,-2.5 2.5,-2.5 z" style="fill:#ffd6b6;fill-opacity:1;stroke:none;stroke-width:0.5;stroke-linecap:round;stroke-linejoin:round;stroke-miterlimit:4;stroke-dasharray:none;stroke-opacity:1" transform="matrix(0.5,0.8660254,-0.8660254,0.5,0,0)"/>
      <path inkscape:connector-curvature="0" id="path7403" d="m -237.63086,2373.3555 a 2.0002,2.0002 0 0 0 -1.63867,3.0234 l 6.98437,12.0996 a 2.0003241,2.0003241 0 1 0 3.46485,-2 l -6.98633,-12.0996 a 2.0002,2.0002 0 0 0 -1.82422,-1.0234 z" style="color:#000000;font-style:normal;font-variant:normal;font-weight:normal;font-stretch:normal;font-size:medium;line-height:normal;font-family:sans-serif;text-indent:0;text-align:start;text-decoration:none;text-decoration-line:none;text-decoration-style:solid;text-decoration-color:#000000;letter-spacing:normal;word-spacing:normal;text-transform:none;direction:ltr;block-progression:tb;writing-mode:lr-tb;baseline-shift:baseline;text-anchor:start;white-space:normal;clip-rule:nonzero;display:inline;overflow:visible;visibility:visible;opacity:1;isolation:auto;mix-blend-mode:normal;color-interpolation:sRGB;color-interpolation-filters:linearRGB;solid-color:#000000;solid-opacity:1;fill:#ffd6b6;fill-opacity:1;fill-rule:evenodd;stroke:none;stroke-width:4;stroke-linecap:round;stroke-linejoin:round;stroke-miterlimit:4;stroke-dasharray:none;stroke-dashoffset:0;stroke-opacity:1;color-rendering:auto;image-rendering:auto;shape-rendering:auto;text-rendering:auto;enable-background:accumulate"/>
      <path style="color:#000000;font-style:normal;font-variant:normal;font-weight:normal;font-stretch:normal;font-size:medium;line-height:normal;font-family:sans-serif;text-indent:0;text-align:start;text-decoration:none;text-decoration-line:none;text-decoration-style:solid;text-decoration-color:#000000;letter-spacing:normal;word-spacing:normal;text-transform:none;direction:ltr;writing-mode:lr-tb;baseline-shift:baseline;text-anchor:start;white-space:normal;clip-rule:nonzero;display:inline;overflow:visible;visibility:visible;opacity:1;isolation:auto;mix-blend-mode:normal;color-interpolation:sRGB;color-interpolation-filters:linearRGB;solid-color:#000000;solid-opacity:1;fill:#ffcaa0;fill-opacity:1;fill-rule:evenodd;stroke:none;stroke-width:5;stroke-linecap:round;stroke-linejoin:round;stroke-miterlimit:4;stroke-dasharray:none;stroke-dashoffset:0;stroke-opacity:1;color-rendering:auto;image-rendering:auto;shape-rendering:auto;text-rendering:auto;enable-background:accumulate" d="m -225.16053,2382.2402 a 2.50025,2.50025 0 0 0 -0.78094,0.2998 l -1.64744,0.9512 c -0.004,0.6851 0.14925,1.3797 0.51451,2.0123 l 0.5,0.866 c 0.36526,0.6327 0.89003,1.1128 1.48549,1.4518 l 1.64744,-0.9512 a 2.50025,2.50025 0 0 0 0.65008,-0.5264 c -0.79884,0.1374 -1.61483,-0.2188 -2.05096,-0.9742 l -0.5,-0.866 c -0.43614,-0.7554 -0.33657,-1.6401 0.18182,-2.2633 z" id="path7405" inkscape:connector-curvature="0"/>
      <path sodipodi:nodetypes="cssssc" d="m -214.18456,2383.8292 -5.36693,3.0986 c -2.29722,1.3263 -5.2346,0.5392 -6.56088,-1.758 l -0.19212,-0.3328 c -1.32629,-2.2972 -0.53924,-5.2346 1.75798,-6.5609 l 5.36693,-3.0986" class="st3" id="path7407" inkscape:connector-curvature="0" style="fill:#ffd6b6;fill-opacity:1"/>
      <path d="m -215.96737,2376.608 -0.64168,-1.1114 c -0.35226,-0.6101 -0.18328,-1.3674 0.42213,-1.7248 -0.43975,-0.5817 -1.2904,-0.7377 -1.93827,-0.3636 l -2.26587,1.3082 c -0.70157,0.405 -0.86791,1.2593 -0.46289,1.9608 l 1.28335,2.2229 0.82502,1.4289 2.38356,4.1285 c 0.15188,0.2631 0.41851,0.3935 0.68065,0.2421 l 2.58734,-1.4938 c 0.34953,-0.2018 0.53775,-0.6896 0.33524,-1.0403 l -1.92522,-3.3346 z" class="st6" id="path7410" inkscape:connector-curvature="0" style="fill:#273951;fill-opacity:1" sodipodi:nodetypes="cscsssccsssscc"/>
      <path style="fill:#273951;fill-opacity:1;stroke:none;stroke-width:5;stroke-linecap:round;stroke-linejoin:round;stroke-miterlimit:4;stroke-dasharray:none;stroke-opacity:1" d="m -215.54553,2381.6909 c -0.72819,-0.1217 -1.4994,-0.015 -2.1917,0.3847 l -2.85797,1.65 c -1.36962,0.7908 -1.95287,2.4021 -1.49482,3.8475 0.84711,0.022 1.70935,-0.1657 2.49708,-0.6205 l 5.31393,-3.068 z" id="path7412" inkscape:connector-curvature="0"/>
      <path inkscape:connector-curvature="0" id="circle7414" d="m 1955.1694,1381.8038 a 1.1000206,1.1000206 0 0 1 -1.1001,1.1001 1.1000206,1.1000206 0 0 1 -1.1,-1.1001 1.1000206,1.1000206 0 0 1 1.1,-1.1 1.1000206,1.1000206 0 0 1 1.1001,1.1 z" style="fill:#ffd6b6;fill-opacity:1;stroke:none;stroke-width:5;stroke-linecap:round;stroke-linejoin:round;stroke-miterlimit:4;stroke-dasharray:none;stroke-opacity:1" transform="matrix(0.5,0.8660254,-0.8660254,0.5,0,0)"/>
      <path style="fill:none;fill-rule:evenodd;stroke:#273951;stroke-width:1.11308062px;stroke-linecap:butt;stroke-linejoin:miter;stroke-opacity:1" d="m -223.41596,2377.6175 0.55557,0.9623" id="path7416" inkscape:connector-curvature="0"/>
      <path inkscape:connector-curvature="0" id="rect7418" d="m 1947.3693,1379.6038 10.0002,0 0,1.1 -10.0002,0 z" style="fill:#ffffff;fill-opacity:1;stroke:none;stroke-width:5;stroke-linecap:round;stroke-linejoin:round;stroke-miterlimit:4;stroke-dasharray:none;stroke-opacity:1" transform="matrix(0.5,0.8660254,-0.8660254,0.5,0,0)"/>
      <path inkscape:connector-curvature="0" id="rect7420" d="m 1949.3693,1408.4039 5,0 0,7 -5,0 z" style="fill:#354d62;fill-opacity:1;stroke:none;stroke-width:5;stroke-linecap:round;stroke-linejoin:round;stroke-miterlimit:4;stroke-dasharray:none;stroke-opacity:1" transform="matrix(0.5,0.8660254,-0.8660254,0.5,0,0)"/>
    </g>
  </g>

	<metadata>
		<rdf:RDF xmlns:rdf="http://www.w3.org/1999/02/22-rdf-syntax-ns#" xmlns:rdfs="http://www.w3.org/2000/01/rdf-schema#" xmlns:dc="http://purl.org/dc/elements/1.1/">
			<rdf:Description about="https://iconscout.com/legal#licenses" dc:title="17" dc:description="17" dc:publisher="Iconscout" dc:date="2017-03-06" dc:format="image/svg+xml" dc:language="en">
				<dc:creator>
					<rdf:Bag>
						<rdf:li>Jemis Mali</rdf:li>
					</rdf:Bag>
				</dc:creator>
			</rdf:Description>
		</rdf:RDF>
    </metadata></svg>
