<?xml version="1.0" encoding="UTF-8" standalone="no"?>
<svg xmlns:dc="http://purl.org/dc/elements/1.1/" xmlns:cc="http://creativecommons.org/ns#" xmlns:rdf="http://www.w3.org/1999/02/22-rdf-syntax-ns#" xmlns:svg="http://www.w3.org/2000/svg" xmlns="http://www.w3.org/2000/svg" xmlns:sodipodi="http://sodipodi.sourceforge.net/DTD/sodipodi-0.dtd" xmlns:inkscape="http://www.inkscape.org/namespaces/inkscape" width="64" height="64" viewBox="0 0 64.000001 64.000001" id="svg7251" version="1.1" inkscape:version="0.91 r13725" sodipodi:docname="18.svg">
  <defs id="defs7253"/>
  <sodipodi:namedview id="base" pagecolor="#ffffff" bordercolor="#666666" borderopacity="1.0" inkscape:pageopacity="0.0" inkscape:pageshadow="2" inkscape:zoom="3.959798" inkscape:cx="4.5626766" inkscape:cy="46.02342" inkscape:document-units="px" inkscape:current-layer="layer1" showgrid="true" units="px" inkscape:snap-bbox="true" inkscape:bbox-paths="true" inkscape:bbox-nodes="true" inkscape:snap-bbox-edge-midpoints="true" inkscape:snap-bbox-midpoints="true" inkscape:window-width="1366" inkscape:window-height="705" inkscape:window-x="-8" inkscape:window-y="-8" inkscape:window-maximized="1">
    <inkscape:grid type="xygrid" id="grid7259"/>
  </sodipodi:namedview>
  
  <g inkscape:label="Layer 1" inkscape:groupmode="layer" id="layer1" transform="translate(0,-988.36216)">
    <g transform="translate(201.58746,-1386.9428)" id="g9357">
      <path inkscape:connector-curvature="0" id="rect7002" d="m -189.58747,2385.3296 8.95796,0 c 0.554,0 0.99999,0.446 0.99999,1 0,0.554 -0.44599,1 -0.99999,1 l -8.95796,0 c -0.554,0 -0.99999,-0.446 -0.99999,-1 0,-0.554 0.44599,-1 0.99999,-1 z" style="fill:#273951;fill-opacity:1;stroke-width:1.04680216"/>
      <path inkscape:connector-curvature="0" id="rect7004" d="m -181.62953,2384.3296 2e-5,0 c 0.554,0 0.99999,0.446 0.99999,1 l 0,2 c 0,0.554 -0.44599,1 -0.99999,1 l -2e-5,0 c -0.55399,0 -0.99999,-0.446 -0.99999,-1 l 0,-2 c 0,-0.554 0.446,-1 0.99999,-1 z" style="fill:#273951;fill-opacity:1"/>
      <path inkscape:connector-curvature="0" id="rect7006" d="m -188.62952,2384.3296 c 0.554,0 1,0.446 1,1 l 0,2 c 0,0.554 -0.446,1 -1,1 -0.554,0 -1,-0.446 -1,-1 l 0,-2 c 0,-0.554 0.446,-1 1,-1 z" style="fill:#273951;fill-opacity:1"/>
      <path inkscape:connector-curvature="0" id="rect7008" d="m -183.12952,2385.3296 c 0.277,0 0.5,0.223 0.5,0.5 l 0,2 c 0,0.277 -0.223,0.5 -0.5,0.5 -0.277,0 -0.5,-0.223 -0.5,-0.5 l 0,-2 c 0,-0.277 0.223,-0.5 0.5,-0.5 z" style="fill:#f9c3ad;fill-opacity:1;stroke-width:5;stroke-miterlimit:4;stroke-dasharray:none"/>
      <path inkscape:connector-curvature="0" id="rect7012" d="m 150.62951,2385.3296 8.95796,0 c 0.554,0 0.99999,0.446 0.99999,1 0,0.554 -0.44599,1 -0.99999,1 l -8.95796,0 c -0.554,0 -0.99999,-0.446 -0.99999,-1 0,-0.554 0.44599,-1 0.99999,-1 z" style="fill:#273951;fill-opacity:1;stroke-width:1.04680216" transform="scale(-1,1)"/>
      <path inkscape:connector-curvature="0" id="rect7014" d="m 158.58745,2384.3296 2e-5,0 c 0.554,0 0.99999,0.446 0.99999,1 l 0,2 c 0,0.554 -0.44599,1 -0.99999,1 l -2e-5,0 c -0.55399,0 -0.99999,-0.446 -0.99999,-1 l 0,-2 c 0,-0.554 0.446,-1 0.99999,-1 z" style="fill:#273951;fill-opacity:1" transform="scale(-1,1)"/>
      <path inkscape:connector-curvature="0" id="rect7016" d="m 151.58746,2384.3296 c 0.554,0 1,0.446 1,1 l 0,2 c 0,0.554 -0.446,1 -1,1 -0.554,0 -1,-0.446 -1,-1 l 0,-2 c 0,-0.554 0.446,-1 1,-1 z" style="fill:#273951;fill-opacity:1" transform="scale(-1,1)"/>
      <path inkscape:connector-curvature="0" id="rect7018" d="m 157.08746,2385.3296 c 0.277,0 0.5,0.223 0.5,0.5 l 0,2 c 0,0.277 -0.223,0.5 -0.5,0.5 -0.277,0 -0.5,-0.223 -0.5,-0.5 l 0,-2 c 0,-0.277 0.223,-0.5 0.5,-0.5 z" style="fill:#f9c3ad;fill-opacity:1;stroke-width:5;stroke-miterlimit:4;stroke-dasharray:none" transform="scale(-1,1)"/>
      <path inkscape:connector-curvature="0" id="path7659" d="m -155.16016,2384.2949 a 2.50025,2.50025 0 0 0 -2.46289,2.5352 l 0,7.5 -7.4707,0 a 2.50025,2.50025 0 1 0 0,5 l 9.9707,0 a 2.50025,2.50025 0 0 0 2.5,-2.5 l 0,-10 a 2.50025,2.50025 0 0 0 -2.53711,-2.5352 z" style="color:#000000;font-style:normal;font-variant:normal;font-weight:normal;font-stretch:normal;font-size:medium;line-height:normal;font-family:sans-serif;text-indent:0;text-align:start;text-decoration:none;text-decoration-line:none;text-decoration-style:solid;text-decoration-color:#000000;letter-spacing:normal;word-spacing:normal;text-transform:none;direction:ltr;block-progression:tb;writing-mode:lr-tb;baseline-shift:baseline;text-anchor:start;white-space:normal;clip-rule:nonzero;display:inline;overflow:visible;visibility:visible;opacity:1;isolation:auto;mix-blend-mode:normal;color-interpolation:sRGB;color-interpolation-filters:linearRGB;solid-color:#000000;solid-opacity:1;fill:#ffd6b6;fill-opacity:1;fill-rule:evenodd;stroke:none;stroke-width:5;stroke-linecap:round;stroke-linejoin:round;stroke-miterlimit:4;stroke-dasharray:none;stroke-dashoffset:0;stroke-opacity:1;color-rendering:auto;image-rendering:auto;shape-rendering:auto;text-rendering:auto;enable-background:accumulate"/>
      <path inkscape:connector-curvature="0" id="path7661" d="m -185.16602,2384.2949 a 2.50025,2.50025 0 0 0 -2.46289,2.5352 l 0,10 a 2.50025,2.50025 0 0 0 2.5,2.5 l 9.97071,0 a 2.50025,2.50025 0 1 0 0,-5 l -7.47071,0 0,-7.5 a 2.50025,2.50025 0 0 0 -2.53711,-2.5352 z" style="color:#000000;font-style:normal;font-variant:normal;font-weight:normal;font-stretch:normal;font-size:medium;line-height:normal;font-family:sans-serif;text-indent:0;text-align:start;text-decoration:none;text-decoration-line:none;text-decoration-style:solid;text-decoration-color:#000000;letter-spacing:normal;word-spacing:normal;text-transform:none;direction:ltr;block-progression:tb;writing-mode:lr-tb;baseline-shift:baseline;text-anchor:start;white-space:normal;clip-rule:nonzero;display:inline;overflow:visible;visibility:visible;opacity:1;isolation:auto;mix-blend-mode:normal;color-interpolation:sRGB;color-interpolation-filters:linearRGB;solid-color:#000000;solid-opacity:1;fill:#ffd6b6;fill-opacity:1;fill-rule:evenodd;stroke:none;stroke-width:5;stroke-linecap:round;stroke-linejoin:round;stroke-miterlimit:4;stroke-dasharray:none;stroke-dashoffset:0;stroke-opacity:1;color-rendering:auto;image-rendering:auto;shape-rendering:auto;text-rendering:auto;enable-background:accumulate"/>
      <path style="fill:none;fill-rule:evenodd;stroke:#f9c3ad;stroke-width:5;stroke-linecap:round;stroke-linejoin:round;stroke-miterlimit:4;stroke-dasharray:none;stroke-opacity:1" d="m -170.12951,2404.8654 0,-18" id="path7663" inkscape:connector-curvature="0" sodipodi:nodetypes="cc"/>
      <path inkscape:connector-curvature="0" id="rect7665" d="m -175.62952,2394.3298 11,0 c 0.554,0 1,0.446 1,1 l 0,5 c 0,0.554 -0.446,1 -1,1 l -11,0 c -0.554,0 -1,-0.446 -1,-1 l 0,-5 c 0,-0.554 0.446,-1 1,-1 z" style="fill:#f9c3ad;fill-opacity:1;stroke:none;stroke-width:4;stroke-linecap:round;stroke-linejoin:round;stroke-opacity:1"/>
      <path style="fill:none;fill-rule:evenodd;stroke:#f9c3ad;stroke-width:5;stroke-linecap:butt;stroke-linejoin:miter;stroke-miterlimit:4;stroke-dasharray:none;stroke-opacity:1" d="m -174.12951,2411.3299 0,20" id="path7667" inkscape:connector-curvature="0"/>
      <path inkscape:connector-curvature="0" id="rect7669" d="m -176.62952,2411.3296 5,0 0,7 -5,0 z" style="fill:#f5583b;fill-opacity:1;stroke:none;stroke-width:4;stroke-opacity:1"/>
      <path style="fill:#f5583b;fill-opacity:1;stroke:none;stroke-width:4;stroke-opacity:1" d="m -176.62951,2410.3299 13,0 0,5 -13,0 z" id="path7671" inkscape:connector-curvature="0" sodipodi:nodetypes="ccccc"/>
      <path style="fill:#273951;fill-opacity:1;stroke:none;stroke-width:4;stroke-opacity:1" d="m -174.62951,2394.3299 0,3 c 0,1.108 -0.892,2 -2,2 l 0,11 13,0 0,-11 c -1.108,0 -2,-0.892 -2,-2 l 0,-3 -2.05078,0 c -0.23757,1.1638 -1.26134,1.9998 -2.44922,2 -1.18641,0 -2.20803,-0.8376 -2.44531,-2 z" id="path7673" inkscape:connector-curvature="0" sodipodi:nodetypes="csccccsccccc"/>
      <path style="color:#000000;font-style:normal;font-variant:normal;font-weight:normal;font-stretch:normal;font-size:medium;line-height:normal;font-family:sans-serif;text-indent:0;text-align:start;text-decoration:none;text-decoration-line:none;text-decoration-style:solid;text-decoration-color:#000000;letter-spacing:normal;word-spacing:normal;text-transform:none;direction:ltr;writing-mode:lr-tb;baseline-shift:baseline;text-anchor:start;white-space:normal;clip-rule:nonzero;display:inline;overflow:visible;visibility:visible;opacity:1;isolation:auto;mix-blend-mode:normal;color-interpolation:sRGB;color-interpolation-filters:linearRGB;solid-color:#000000;solid-opacity:1;fill:#f8b79c;fill-opacity:1;fill-rule:evenodd;stroke:none;stroke-width:5;stroke-linecap:round;stroke-linejoin:round;stroke-miterlimit:4;stroke-dasharray:none;stroke-dashoffset:0;stroke-opacity:1;color-rendering:auto;image-rendering:auto;shape-rendering:auto;text-rendering:auto;enable-background:accumulate" d="m -172.49865,2391.0408 a 2.50025,2.50025 0 0 0 -0.13086,0.8262 l 0,1.9023 c 0.59129,0.3462 1.26948,0.5606 2,0.5606 l 1,0 c 0.73052,0 1.40871,-0.2144 2,-0.5606 l 0,-1.9023 a 2.50025,2.50025 0 0 0 -0.13086,-0.8262 c -0.28045,0.7605 -0.99687,1.2891 -1.86914,1.2891 l -1,0 c -0.87227,0 -1.58869,-0.5286 -1.86914,-1.2891 z" id="path7675" inkscape:connector-curvature="0"/>
      <path sodipodi:nodetypes="cssssc" d="m -165.62926,2383.4301 0,5.5772 c 0,2.3874 -1.93524,4.3225 -4.32249,4.3225 l -0.34581,0 c -2.38726,0 -4.3225,-1.9351 -4.3225,-4.3225 l 0,-5.5772" class="st3" id="path7677" inkscape:connector-curvature="0" style="fill:#f9c3ad;fill-opacity:1"/>
      <path inkscape:connector-curvature="0" id="circle7679" d="m -171.62927,2387.325 a 0.49999973,0.49999973 0 0 1 -0.5,0.5 0.49999973,0.49999973 0 0 1 -0.5,-0.5 0.49999973,0.49999973 0 0 1 0.5,-0.5 0.49999973,0.49999973 0 0 1 0.5,0.5 z" style="fill:#234957"/>
      <path inkscape:connector-curvature="0" id="circle7681" d="m -167.62927,2387.2839 a 0.49999973,0.49999973 0 0 1 -0.5,0.5 0.49999973,0.49999973 0 0 1 -0.5,-0.5 0.49999973,0.49999973 0 0 1 0.5,-0.5 0.49999973,0.49999973 0 0 1 0.5,0.5 z" style="fill:#234957"/>
      <path inkscape:connector-curvature="0" id="rect7683" d="m -174.62927,2384.3298 9,0 0,2 -9,0 z" style="fill:#273951;fill-opacity:1;stroke:none;stroke-width:0.5;stroke-linecap:round;stroke-linejoin:round;stroke-miterlimit:4;stroke-dasharray:none;stroke-opacity:1"/>
      <path d="m -172.12927,2381.3966 -1.16666,0 c -0.64047,0 -1.15989,-0.4773 -1.16608,-1.1163 -0.65781,0.082 -1.16725,0.6806 -1.16725,1.3607 l 0,2.4332 c 0,0.7364 0.59695,1.2557 1.33333,1.2557 l 2.33333,0 1.50001,0 4.83341,0 c 0.27614,0 0.5,-0.1507 0.5,-0.4258 l 0,-2.7707 c 0,-0.3669 -0.29859,-0.746 -0.66666,-0.7368 l -4.00008,0 z" class="st6" id="path7685" inkscape:connector-curvature="0" style="fill:#273951;fill-opacity:1" sodipodi:nodetypes="cscsssccsssscc"/>
      <path style="fill:#f2f2f2;fill-opacity:1;stroke:none;stroke-width:5;stroke-linecap:round;stroke-linejoin:round;stroke-miterlimit:4;stroke-dasharray:none;stroke-opacity:1" d="m -174.62926,2385.3299 0,1 9,0 0,-1 z" id="path7687" inkscape:connector-curvature="0" sodipodi:nodetypes="ccccc"/>
      <path inkscape:connector-curvature="0" id="path7689" d="m -168.62891,2411.3301 0,20 5,0 0,-20 -5,0 z" style="color:#000000;font-style:normal;font-variant:normal;font-weight:normal;font-stretch:normal;font-size:medium;line-height:normal;font-family:sans-serif;text-indent:0;text-align:start;text-decoration:none;text-decoration-line:none;text-decoration-style:solid;text-decoration-color:#000000;letter-spacing:normal;word-spacing:normal;text-transform:none;direction:ltr;block-progression:tb;writing-mode:lr-tb;baseline-shift:baseline;text-anchor:start;white-space:normal;clip-rule:nonzero;display:inline;overflow:visible;visibility:visible;opacity:1;isolation:auto;mix-blend-mode:normal;color-interpolation:sRGB;color-interpolation-filters:linearRGB;solid-color:#000000;solid-opacity:1;fill:#ffd6b6;fill-opacity:1;fill-rule:evenodd;stroke:none;stroke-width:5;stroke-linecap:butt;stroke-linejoin:miter;stroke-miterlimit:4;stroke-dasharray:none;stroke-dashoffset:0;stroke-opacity:1;color-rendering:auto;image-rendering:auto;shape-rendering:auto;text-rendering:auto;enable-background:accumulate"/>
      <path inkscape:connector-curvature="0" id="rect7691" d="m -168.62952,2411.3296 5,0 0,7 -5,0 z" style="fill:#f5583b;fill-opacity:1;stroke:none;stroke-width:4;stroke-opacity:1"/>
      <path inkscape:connector-curvature="0" id="path7693" d="m -170.16797,2384.3301 a 2.50025,2.50025 0 0 0 -2.46094,2.5351 l 0,18 a 2.50025,2.50025 0 1 0 5,0 l 0,-18 a 2.50025,2.50025 0 0 0 -2.53906,-2.5351 z" style="color:#000000;font-style:normal;font-variant:normal;font-weight:normal;font-stretch:normal;font-size:medium;line-height:normal;font-family:sans-serif;text-indent:0;text-align:start;text-decoration:none;text-decoration-line:none;text-decoration-style:solid;text-decoration-color:#000000;letter-spacing:normal;word-spacing:normal;text-transform:none;direction:ltr;block-progression:tb;writing-mode:lr-tb;baseline-shift:baseline;text-anchor:start;white-space:normal;clip-rule:nonzero;display:inline;overflow:visible;visibility:visible;opacity:1;isolation:auto;mix-blend-mode:normal;color-interpolation:sRGB;color-interpolation-filters:linearRGB;solid-color:#000000;solid-opacity:1;fill:#ffd6b6;fill-opacity:1;fill-rule:evenodd;stroke:none;stroke-width:5;stroke-linecap:round;stroke-linejoin:round;stroke-miterlimit:4;stroke-dasharray:none;stroke-dashoffset:0;stroke-opacity:1;color-rendering:auto;image-rendering:auto;shape-rendering:auto;text-rendering:auto;enable-background:accumulate"/>
      <path inkscape:connector-curvature="0" id="rect7695" d="m -175.62952,2394.3298 11,0 c 0.554,0 1,0.446 1,1 l 0,5 c 0,0.554 -0.446,1 -1,1 l -11,0 c -0.554,0 -1,-0.446 -1,-1 l 0,-5 c 0,-0.554 0.446,-1 1,-1 z" style="fill:#ffd6b6;fill-opacity:1;stroke:none;stroke-width:4;stroke-linecap:round;stroke-linejoin:round;stroke-opacity:1"/>
      <path inkscape:connector-curvature="0" id="path7697" d="m -176.62891,2411.3301 0,20 5,0 0,-20 -5,0 z" style="color:#000000;font-style:normal;font-variant:normal;font-weight:normal;font-stretch:normal;font-size:medium;line-height:normal;font-family:sans-serif;text-indent:0;text-align:start;text-decoration:none;text-decoration-line:none;text-decoration-style:solid;text-decoration-color:#000000;letter-spacing:normal;word-spacing:normal;text-transform:none;direction:ltr;block-progression:tb;writing-mode:lr-tb;baseline-shift:baseline;text-anchor:start;white-space:normal;clip-rule:nonzero;display:inline;overflow:visible;visibility:visible;opacity:1;isolation:auto;mix-blend-mode:normal;color-interpolation:sRGB;color-interpolation-filters:linearRGB;solid-color:#000000;solid-opacity:1;fill:#ffd6b6;fill-opacity:1;fill-rule:evenodd;stroke:none;stroke-width:5;stroke-linecap:butt;stroke-linejoin:miter;stroke-miterlimit:4;stroke-dasharray:none;stroke-dashoffset:0;stroke-opacity:1;color-rendering:auto;image-rendering:auto;shape-rendering:auto;text-rendering:auto;enable-background:accumulate"/>
      <path inkscape:connector-curvature="0" id="rect7699" d="m -176.62952,2411.3296 5,0 0,7 -5,0 z" style="fill:#354d62;fill-opacity:1;stroke:none;stroke-width:4;stroke-opacity:1"/>
      <path sodipodi:nodetypes="ccccc" inkscape:connector-curvature="0" id="path7701" d="m -176.62951,2410.3299 13,0 0,5 -13,0 z" style="fill:#354d62;fill-opacity:1;stroke:none;stroke-width:4;stroke-opacity:1"/>
      <path id="path7703" d="m -174.62951,2394.3296 0,3 c 0,1.108 -0.892,2 -2,2 l 0,11 13,0 0,-11 c -1.108,0 -2,-0.892 -2,-2 l 0,-3 -2,0 a 2.5000112,2.5000112 0 0 1 -2.5,2.5 2.5000112,2.5000112 0 0 1 -2.5,-2.5 z" style="fill:#5acfd6;fill-opacity:1;stroke:none;stroke-width:4;stroke-opacity:1" inkscape:connector-curvature="0"/>
      <path inkscape:connector-curvature="0" id="rect7705" d="m -175.62954,2430.3323 3.00005,0 c 0.55398,0 0.99997,0.446 0.99997,1 l 0,1.9975 c 0,0.5539 -0.44599,0.9999 -0.99997,0.9999 l -3.00005,0 c -0.55399,0 -0.99998,-0.446 -0.99998,-0.9999 l 0,-1.9975 c 0,-0.554 0.44599,-1 0.99998,-1 z" style="fill:#d0e3eb;fill-opacity:1;stroke:none;stroke-width:4;stroke-opacity:1"/>
      <path inkscape:connector-curvature="0" id="rect7707" d="m -176.62952,2429.3298 5,0 0,1 -5,0 z" style="fill:#d0e3eb;fill-opacity:1;stroke:none;stroke-width:4;stroke-opacity:1"/>
      <path inkscape:connector-curvature="0" id="rect7709" d="m -176.62952,2430.3298 5,0 0,1 -5,0 z" style="fill:#273951;fill-opacity:1;stroke:none;stroke-width:4;stroke-opacity:1"/>
      <path inkscape:connector-curvature="0" id="rect7723" d="m -168.62952,2411.3296 5,0 0,7 -5,0 z" style="fill:#354d62;fill-opacity:1;stroke:none;stroke-width:4;stroke-opacity:1"/>
      <path inkscape:connector-curvature="0" id="rect7725" d="m -167.62954,2430.3323 3.00005,0 c 0.55398,0 0.99997,0.446 0.99997,1 l 0,1.9975 c 0,0.5539 -0.44599,0.9999 -0.99997,0.9999 l -3.00005,0 c -0.55399,0 -0.99998,-0.446 -0.99998,-0.9999 l 0,-1.9975 c 0,-0.554 0.44599,-1 0.99998,-1 z" style="fill:#d0e3eb;fill-opacity:1;stroke:none;stroke-width:4;stroke-opacity:1"/>
      <path inkscape:connector-curvature="0" id="rect7727" d="m -168.62952,2429.3298 5,0 0,1 -5,0 z" style="fill:#d0e3eb;fill-opacity:1;stroke:none;stroke-width:4;stroke-opacity:1"/>
      <path inkscape:connector-curvature="0" id="rect7729" d="m -168.62952,2430.3298 5,0 0,1 -5,0 z" style="fill:#273951;fill-opacity:1;stroke:none;stroke-width:4;stroke-opacity:1"/>
      <path inkscape:connector-curvature="0" id="path7711" d="m -172.49865,2391.0408 a 2.50025,2.50025 0 0 0 -0.13086,0.8262 l 0,1.9023 c 0.59129,0.3462 1.26948,0.5606 2,0.5606 l 1,0 c 0.73052,0 1.40871,-0.2144 2,-0.5606 l 0,-1.9023 a 2.50025,2.50025 0 0 0 -0.13086,-0.8262 c -0.28045,0.7605 -0.99687,1.2891 -1.86914,1.2891 l -1,0 c -0.87227,0 -1.58869,-0.5286 -1.86914,-1.2891 z" style="color:#000000;font-style:normal;font-variant:normal;font-weight:normal;font-stretch:normal;font-size:medium;line-height:normal;font-family:sans-serif;text-indent:0;text-align:start;text-decoration:none;text-decoration-line:none;text-decoration-style:solid;text-decoration-color:#000000;letter-spacing:normal;word-spacing:normal;text-transform:none;direction:ltr;writing-mode:lr-tb;baseline-shift:baseline;text-anchor:start;white-space:normal;clip-rule:nonzero;display:inline;overflow:visible;visibility:visible;opacity:1;isolation:auto;mix-blend-mode:normal;color-interpolation:sRGB;color-interpolation-filters:linearRGB;solid-color:#000000;solid-opacity:1;fill:#ffcaa0;fill-opacity:1;fill-rule:evenodd;stroke:none;stroke-width:5;stroke-linecap:round;stroke-linejoin:round;stroke-miterlimit:4;stroke-dasharray:none;stroke-dashoffset:0;stroke-opacity:1;color-rendering:auto;image-rendering:auto;shape-rendering:auto;text-rendering:auto;enable-background:accumulate"/>
      <path style="fill:#ffd6b6;fill-opacity:1;stroke-width:1.00102317" inkscape:connector-curvature="0" id="path7713" class="st3" d="m -165.62951,2383.42 0,5.5829 c 0,2.3899 -1.93722,4.3269 -4.32691,4.3269 l -0.34617,0 c -2.38971,0 -4.32692,-1.937 -4.32692,-4.3269 l 0,-5.5829" sodipodi:nodetypes="cssssc"/>
      <path inkscape:connector-curvature="0" id="circle7715" d="m -171.62927,2387.325 a 0.49999973,0.49999973 0 0 1 -0.5,0.5 0.49999973,0.49999973 0 0 1 -0.5,-0.5 0.49999973,0.49999973 0 0 1 0.5,-0.5 0.49999973,0.49999973 0 0 1 0.5,0.5 z" style="fill:#234957"/>
      <path inkscape:connector-curvature="0" id="circle7717" d="m -167.62927,2387.2839 a 0.49999973,0.49999973 0 0 1 -0.5,0.5 0.49999973,0.49999973 0 0 1 -0.5,-0.5 0.49999973,0.49999973 0 0 1 0.5,-0.5 0.49999973,0.49999973 0 0 1 0.5,0.5 z" style="fill:#234957"/>
      <path sodipodi:nodetypes="cscsssccsssscc" style="fill:#273951;fill-opacity:1" inkscape:connector-curvature="0" id="path7719" class="st6" d="m -172.12927,2381.3966 -1.16666,0 c -0.64047,0 -1.15989,-0.4773 -1.16608,-1.1163 -0.65781,0.082 -1.16725,0.6806 -1.16725,1.3607 l 0,2.4332 c 0,0.7364 0.59695,1.2557 1.33333,1.2557 l 2.33333,0 1.50001,0 4.83341,0 c 0.27614,0 0.5,-0.1507 0.5,-0.4258 l 0,-2.7707 c 0,-0.3669 -0.29859,-0.746 -0.66666,-0.7368 l -4.00008,0 z"/>
      <path sodipodi:nodetypes="ccccc" inkscape:connector-curvature="0" id="path7721" d="m -174.62951,2385.3299 0,1 9,0 0,-1 z" style="fill:#f2f2f2;fill-opacity:1;stroke:none;stroke-width:5.00000048;stroke-linecap:round;stroke-linejoin:round;stroke-miterlimit:4;stroke-dasharray:none;stroke-opacity:1"/>
    </g>
  </g>

	<metadata>
		<rdf:RDF xmlns:rdf="http://www.w3.org/1999/02/22-rdf-syntax-ns#" xmlns:rdfs="http://www.w3.org/2000/01/rdf-schema#" xmlns:dc="http://purl.org/dc/elements/1.1/">
			<rdf:Description about="https://iconscout.com/legal#licenses" dc:title="18" dc:description="18" dc:publisher="Iconscout" dc:date="2017-03-06" dc:format="image/svg+xml" dc:language="en">
				<dc:creator>
					<rdf:Bag>
						<rdf:li>Jemis Mali</rdf:li>
					</rdf:Bag>
				</dc:creator>
			</rdf:Description>
		</rdf:RDF>
    </metadata></svg>
