<?xml version="1.0" encoding="UTF-8" standalone="no"?>
<svg xmlns:dc="http://purl.org/dc/elements/1.1/" xmlns:cc="http://creativecommons.org/ns#" xmlns:rdf="http://www.w3.org/1999/02/22-rdf-syntax-ns#" xmlns:svg="http://www.w3.org/2000/svg" xmlns="http://www.w3.org/2000/svg" xmlns:sodipodi="http://sodipodi.sourceforge.net/DTD/sodipodi-0.dtd" xmlns:inkscape="http://www.inkscape.org/namespaces/inkscape" width="64" height="64" viewBox="0 0 64.000001 64.000001" id="svg7251" version="1.1" inkscape:version="0.91 r13725" sodipodi:docname="26.svg">
  <defs id="defs7253"/>
  <sodipodi:namedview id="base" pagecolor="#ffffff" bordercolor="#666666" borderopacity="1.0" inkscape:pageopacity="0.0" inkscape:pageshadow="2" inkscape:zoom="5.6" inkscape:cx="46.739005" inkscape:cy="31.708364" inkscape:document-units="px" inkscape:current-layer="layer1" showgrid="true" units="px" inkscape:snap-bbox="true" inkscape:bbox-paths="true" inkscape:bbox-nodes="true" inkscape:snap-bbox-edge-midpoints="true" inkscape:snap-bbox-midpoints="true" inkscape:window-width="1366" inkscape:window-height="705" inkscape:window-x="-8" inkscape:window-y="-8" inkscape:window-maximized="1">
    <inkscape:grid type="xygrid" id="grid7259"/>
  </sodipodi:namedview>
  
  <g inkscape:label="Layer 1" inkscape:groupmode="layer" id="layer1" transform="translate(0,-988.36216)">
    <g transform="translate(268.12978,-1460.9685)" id="g10337">
      <path inkscape:connector-curvature="0" id="path7838" d="m -256.63281,2471.8301 a 2.50025,2.50025 0 1 0 0,5 l 7.5,0 0,5.4726 a 2.50025,2.50025 0 1 0 5,0 l 0,-7.9726 a 2.50025,2.50025 0 0 0 -2.5,-2.5 l -10,0 z" style="color:#000000;font-style:normal;font-variant:normal;font-weight:normal;font-stretch:normal;font-size:medium;line-height:normal;font-family:sans-serif;text-indent:0;text-align:start;text-decoration:none;text-decoration-line:none;text-decoration-style:solid;text-decoration-color:#000000;letter-spacing:normal;word-spacing:normal;text-transform:none;direction:ltr;block-progression:tb;writing-mode:lr-tb;baseline-shift:baseline;text-anchor:start;white-space:normal;clip-rule:nonzero;display:inline;overflow:visible;visibility:visible;opacity:1;isolation:auto;mix-blend-mode:normal;color-interpolation:sRGB;color-interpolation-filters:linearRGB;solid-color:#000000;solid-opacity:1;fill:#ffd6b6;fill-opacity:1;fill-rule:evenodd;stroke:none;stroke-width:5;stroke-linecap:round;stroke-linejoin:round;stroke-miterlimit:4;stroke-dasharray:none;stroke-dashoffset:0;stroke-opacity:1;color-rendering:auto;image-rendering:auto;shape-rendering:auto;text-rendering:auto;enable-background:accumulate"/>
      <path inkscape:connector-curvature="0" id="path7841" d="m -231.12891,2482.8301 a 2.50025,2.50025 0 1 0 0,5 l 6,0 a 2.50025,2.50025 0 1 0 0,-5 l -6,0 z" style="color:#000000;font-style:normal;font-variant:normal;font-weight:normal;font-stretch:normal;font-size:medium;line-height:normal;font-family:sans-serif;text-indent:0;text-align:start;text-decoration:none;text-decoration-line:none;text-decoration-style:solid;text-decoration-color:#000000;letter-spacing:normal;word-spacing:normal;text-transform:none;direction:ltr;block-progression:tb;writing-mode:lr-tb;baseline-shift:baseline;text-anchor:start;white-space:normal;clip-rule:nonzero;display:inline;overflow:visible;visibility:visible;opacity:1;isolation:auto;mix-blend-mode:normal;color-interpolation:sRGB;color-interpolation-filters:linearRGB;solid-color:#000000;solid-opacity:1;fill:#ffd6b6;fill-opacity:1;fill-rule:evenodd;stroke:none;stroke-width:5;stroke-linecap:round;stroke-linejoin:round;stroke-miterlimit:4;stroke-dasharray:none;stroke-dashoffset:0;stroke-opacity:1;color-rendering:auto;image-rendering:auto;shape-rendering:auto;text-rendering:auto;enable-background:accumulate"/>
      <path inkscape:connector-curvature="0" id="rect7843" d="m 2483.8296,241.12976 4,0 c 1.108,0 2,0.892 2,2 l 0,4.99998 c 0,1.108 -0.892,2 -2,2 l -4,0 c -1.108,0 -2,-0.892 -2,-2 l 0,-4.99998 c 0,-1.108 0.892,-2 2,-2 z" style="fill:#354d62;fill-opacity:1;stroke:none;stroke-width:0.5;stroke-linecap:round;stroke-linejoin:round;stroke-miterlimit:4;stroke-dasharray:none;stroke-opacity:1" transform="matrix(0,1,-1,0,0,0)"/>
      <path inkscape:connector-curvature="0" id="rect7845" d="m 2485.8296,227.12976 c 2.216,0 4,1.784 4,4 l 0,8 c 0,2.216 -1.784,4 -4,4 -2.216,0 -4,-1.784 -4,-4 l 0,-8 c 0,-2.216 1.784,-4 4,-4 z" style="fill:#5acfd6;fill-opacity:1;stroke:none;stroke-width:0.5;stroke-linecap:round;stroke-linejoin:round;stroke-miterlimit:4;stroke-dasharray:none;stroke-opacity:1" transform="matrix(0,1,-1,0,0,0)"/>
      <path inkscape:connector-curvature="0" id="rect7847" d="m 2481.8296,234.12976 8,0 0,10.00254 -8,0 z" style="fill:#5acfd6;fill-opacity:1;stroke:none;stroke-width:0.5;stroke-linecap:round;stroke-linejoin:round;stroke-miterlimit:4;stroke-dasharray:none;stroke-opacity:1" transform="matrix(0,1,-1,0,0,0)"/>
      <path inkscape:connector-curvature="0" id="rect7849" d="m 2485.8296,228.62952 c 1.385,0 2.5,1.115 2.5,2.5 l 0,3.09017 c 0,1.385 -1.115,2.5 -2.5,2.5 -1.385,0 -2.5,-1.115 -2.5,-2.5 l 0,-3.09017 c 0,-1.385 1.115,-2.5 2.5,-2.5 z" style="fill:#ffd6b6;fill-opacity:1;stroke:none;stroke-width:0.5;stroke-linecap:round;stroke-linejoin:round;stroke-miterlimit:4;stroke-dasharray:none;stroke-opacity:1" transform="matrix(0,1,-1,0,0,0)"/>
      <path style="color:#000000;font-style:normal;font-variant:normal;font-weight:normal;font-stretch:normal;font-size:medium;line-height:normal;font-family:sans-serif;text-indent:0;text-align:start;text-decoration:none;text-decoration-line:none;text-decoration-style:solid;text-decoration-color:#000000;letter-spacing:normal;word-spacing:normal;text-transform:none;direction:ltr;writing-mode:lr-tb;baseline-shift:baseline;text-anchor:start;white-space:normal;clip-rule:nonzero;display:inline;overflow:visible;visibility:visible;opacity:1;isolation:auto;mix-blend-mode:normal;color-interpolation:sRGB;color-interpolation-filters:linearRGB;solid-color:#000000;solid-opacity:1;fill:#ffcaa0;fill-opacity:1;fill-rule:evenodd;stroke:none;stroke-width:5;stroke-linecap:round;stroke-linejoin:round;stroke-miterlimit:4;stroke-dasharray:none;stroke-dashoffset:0;stroke-opacity:1;color-rendering:auto;image-rendering:auto;shape-rendering:auto;text-rendering:auto;enable-background:accumulate" d="m -223.84057,2482.9604 a 2.50025,2.50025 0 0 0 -0.8262,-0.1309 l -1.9023,0 c -0.3462,0.5913 -0.5606,1.2695 -0.5606,2 l 0,1 c 0,0.7305 0.2144,1.4087 0.5606,2 l 1.9023,0 a 2.50025,2.50025 0 0 0 0.8262,-0.1308 c -0.7605,-0.2805 -1.2891,-0.9969 -1.2891,-1.8692 l 0,-1 c 0,-0.8722 0.5286,-1.5887 1.2891,-1.8691 z" id="path7851" inkscape:connector-curvature="0"/>
      <path sodipodi:nodetypes="cssssc" d="m -215.24027,2489.8244 -6.1348,0 c -2.626,0 -4.7546,-2.1287 -4.7546,-4.7545 l 0,-0.3804 c 0,-2.6259 2.1286,-4.7546 4.7546,-4.7546 l 6.1348,0" class="st3" id="path7853" inkscape:connector-curvature="0" style="fill:#ffd6b6;fill-opacity:1"/>
      <path d="m -213.06367,2482.6797 0,-1.2833 c 0,-0.7045 0.525,-1.2758 1.2279,-1.2826 -0.09,-0.7236 -0.7486,-1.2839 -1.4967,-1.2839 l -2.6163,0 c -0.81,0 -1.3812,0.6566 -1.3812,1.4666 l 0,2.5665 0,1.65 0,4.7669 c 0,0.3037 0.1658,0.55 0.4684,0.55 l 2.9875,0 c 0.4036,0 0.8104,-0.3284 0.8104,-0.7333 l 0,-3.8503 z" class="st6" id="path7855" inkscape:connector-curvature="0" style="fill:#273951;fill-opacity:1" sodipodi:nodetypes="cscsssccsssscc"/>
      <path style="fill:#273951;fill-opacity:1;stroke:none;stroke-width:5;stroke-linecap:round;stroke-linejoin:round;stroke-miterlimit:4;stroke-dasharray:none;stroke-opacity:1" d="m -215.23957,2487.2923 c -0.5698,-0.4694 -1.291,-0.7627 -2.0904,-0.7627 l -3.2999,0 c -1.5814,0 -2.8921,1.1038 -3.2181,2.5845 0.7223,0.4429 1.5631,0.7111 2.4727,0.7111 l 6.1357,0 z" id="path7857" inkscape:connector-curvature="0"/>
      <path inkscape:connector-curvature="0" id="circle7859" d="m 2487.6297,219.53003 a 1.0999637,1.0999637 0 0 1 -1.0999,1.09996 1.0999637,1.0999637 0 0 1 -1.1,-1.09996 1.0999637,1.0999637 0 0 1 1.1,-1.09996 1.0999637,1.0999637 0 0 1 1.0999,1.09996 z" style="fill:#ffd6b6;fill-opacity:1;stroke:none;stroke-width:5;stroke-linecap:round;stroke-linejoin:round;stroke-miterlimit:4;stroke-dasharray:none;stroke-opacity:1" transform="matrix(0,1,-1,0,0,0)"/>
      <path style="fill:none;fill-rule:evenodd;stroke:#273951;stroke-width:1.09996367px;stroke-linecap:butt;stroke-linejoin:miter;stroke-opacity:1" d="m -220.07987,2479.9298 0,1.1" id="path7861" inkscape:connector-curvature="0"/>
      <path inkscape:connector-curvature="0" id="rect7863" d="m 2479.9299,217.33008 9.8997,0 0,1.09996 -9.8997,0 z" style="fill:#ffffff;fill-opacity:1;stroke:none;stroke-width:5;stroke-linecap:round;stroke-linejoin:round;stroke-miterlimit:4;stroke-dasharray:none;stroke-opacity:1" transform="matrix(0,1,-1,0,0,0)"/>
      <path inkscape:connector-curvature="0" id="rect7865" d="m 244.13232,-2485.8296 5.99742,0 0,7 -5.99742,0 z" style="fill:#354d62;fill-opacity:1;stroke:none;stroke-width:5;stroke-linecap:round;stroke-linejoin:round;stroke-miterlimit:4;stroke-dasharray:none;stroke-opacity:1" transform="scale(-1,-1)"/>
      <path inkscape:connector-curvature="0" id="rect7867" d="m 2472.8296,256.12976 3.0003,0 c 0.554,0 1,0.446 1,1 l 0,2.00002 c 0,0.554 -0.446,1 -1,1 l -3.0003,0 c -0.554,0 -1,-0.446 -1,-1 l 0,-2.00002 c 0,-0.554 0.446,-1 1,-1 z" style="fill:#d0e3eb;fill-opacity:1;stroke:none;stroke-width:4;stroke-opacity:1" transform="matrix(0,1,-1,0,0,0)"/>
      <path inkscape:connector-curvature="0" id="rect7869" d="m 2471.8296,255.12976 5.0003,0 0,0.99998 -5.0003,0 z" style="fill:#d0e3eb;fill-opacity:1;stroke:none;stroke-width:4;stroke-opacity:1" transform="matrix(0,1,-1,0,0,0)"/>
      <path inkscape:connector-curvature="0" id="rect7871" d="m 2471.8296,256.12976 5.0003,0 0,0.99998 -5.0003,0 z" style="fill:#273951;fill-opacity:1;stroke:none;stroke-width:4;stroke-opacity:1" transform="matrix(0,1,-1,0,0,0)"/>
      <path inkscape:connector-curvature="0" id="path7873" d="m -232.19727,2483.8223 a 2.0002,2.0002 0 0 0 -0.52929,0.098 l -7.70899,2.4102 -6.69336,0 a 2.0002,2.0002 0 1 0 0,4 l 7,0 a 2.0002,2.0002 0 0 0 0.59571,-0.092 l 8,-2.5 a 2.0002,2.0002 0 0 0 -0.66407,-3.916 z" style="color:#000000;font-style:normal;font-variant:normal;font-weight:normal;font-stretch:normal;font-size:medium;line-height:normal;font-family:sans-serif;text-indent:0;text-align:start;text-decoration:none;text-decoration-line:none;text-decoration-style:solid;text-decoration-color:#000000;letter-spacing:normal;word-spacing:normal;text-transform:none;direction:ltr;block-progression:tb;writing-mode:lr-tb;baseline-shift:baseline;text-anchor:start;white-space:normal;clip-rule:nonzero;display:inline;overflow:visible;visibility:visible;opacity:1;isolation:auto;mix-blend-mode:normal;color-interpolation:sRGB;color-interpolation-filters:linearRGB;solid-color:#000000;solid-opacity:1;fill:#ffd6b6;fill-opacity:1;fill-rule:evenodd;stroke:none;stroke-width:4;stroke-linecap:round;stroke-linejoin:round;stroke-miterlimit:4;stroke-dasharray:none;stroke-dashoffset:0;stroke-opacity:1;color-rendering:auto;image-rendering:auto;shape-rendering:auto;text-rendering:auto;enable-background:accumulate"/>
    </g>
  </g>

	<metadata>
		<rdf:RDF xmlns:rdf="http://www.w3.org/1999/02/22-rdf-syntax-ns#" xmlns:rdfs="http://www.w3.org/2000/01/rdf-schema#" xmlns:dc="http://purl.org/dc/elements/1.1/">
			<rdf:Description about="https://iconscout.com/legal#licenses" dc:title="26" dc:description="26" dc:publisher="Iconscout" dc:date="2017-03-06" dc:format="image/svg+xml" dc:language="en">
				<dc:creator>
					<rdf:Bag>
						<rdf:li>Jemis Mali</rdf:li>
					</rdf:Bag>
				</dc:creator>
			</rdf:Description>
		</rdf:RDF>
    </metadata></svg>
