<?xml version="1.0" encoding="UTF-8" standalone="no"?>
<svg xmlns:dc="http://purl.org/dc/elements/1.1/" xmlns:cc="http://creativecommons.org/ns#" xmlns:rdf="http://www.w3.org/1999/02/22-rdf-syntax-ns#" xmlns:svg="http://www.w3.org/2000/svg" xmlns="http://www.w3.org/2000/svg" xmlns:sodipodi="http://sodipodi.sourceforge.net/DTD/sodipodi-0.dtd" xmlns:inkscape="http://www.inkscape.org/namespaces/inkscape" width="64" height="64" viewBox="0 0 64.000001 64.000001" id="svg7251" version="1.1" inkscape:version="0.91 r13725" sodipodi:docname="22.svg">
  <defs id="defs7253"/>
  <sodipodi:namedview id="base" pagecolor="#ffffff" bordercolor="#666666" borderopacity="1.0" inkscape:pageopacity="0.0" inkscape:pageshadow="2" inkscape:zoom="7.9195959" inkscape:cx="21.429" inkscape:cy="29.916915" inkscape:document-units="px" inkscape:current-layer="layer1" showgrid="true" units="px" inkscape:snap-bbox="true" inkscape:bbox-paths="true" inkscape:bbox-nodes="true" inkscape:snap-bbox-edge-midpoints="true" inkscape:snap-bbox-midpoints="true" inkscape:window-width="1366" inkscape:window-height="705" inkscape:window-x="-8" inkscape:window-y="-8" inkscape:window-maximized="1">
    <inkscape:grid type="xygrid" id="grid7259"/>
  </sodipodi:namedview>
  
  <g inkscape:label="Layer 1" inkscape:groupmode="layer" id="layer1" transform="translate(0,-988.36216)">
    <g transform="matrix(0.99599426,0,0,1,330.97888,-1398.6146)" id="g9981">
      <path inkscape:connector-curvature="0" id="path6698" d="m -295.30664,2419.207 -1.10547,4.877 19.50391,4.4238 1.10547,-4.875 -19.50391,-4.4258 z" style="color:#000000;font-style:normal;font-variant:normal;font-weight:normal;font-stretch:normal;font-size:medium;line-height:normal;font-family:sans-serif;text-indent:0;text-align:start;text-decoration:none;text-decoration-line:none;text-decoration-style:solid;text-decoration-color:#000000;letter-spacing:normal;word-spacing:normal;text-transform:none;direction:ltr;block-progression:tb;writing-mode:lr-tb;baseline-shift:baseline;text-anchor:start;white-space:normal;clip-rule:nonzero;display:inline;overflow:visible;visibility:visible;opacity:1;isolation:auto;mix-blend-mode:normal;color-interpolation:sRGB;color-interpolation-filters:linearRGB;solid-color:#000000;solid-opacity:1;fill:#ffd6b6;fill-opacity:1;fill-rule:evenodd;stroke:none;stroke-width:5;stroke-linecap:butt;stroke-linejoin:miter;stroke-miterlimit:4;stroke-dasharray:none;stroke-dashoffset:0;stroke-opacity:1;color-rendering:auto;image-rendering:auto;shape-rendering:auto;text-rendering:auto;enable-background:accumulate"/>
      <path sodipodi:nodetypes="cc" inkscape:connector-curvature="0" id="path6700" d="m -308.31682,2417.7945 -5.85125,-1.3278" style="fill:none;fill-rule:evenodd;stroke:#ffd6b6;stroke-width:5.01004457;stroke-linecap:round;stroke-linejoin:round;stroke-miterlimit:4;stroke-dasharray:none;stroke-opacity:1"/>
      <path inkscape:connector-curvature="0" id="rect6703" d="m -2427.5981,244.17346 4,0 c 1.108,0 2,0.892 2,2 l 0,4.00254 c 0,1.108 -0.892,2 -2,2 l -4,0 c -1.108,0 -2,-0.892 -2,-2 l 0,-4.00254 c 0,-1.108 0.892,-2 2,-2 z" style="fill:#354d62;fill-opacity:1;stroke:none;stroke-width:0.5;stroke-linecap:round;stroke-linejoin:round;stroke-miterlimit:4;stroke-dasharray:none;stroke-opacity:1" transform="matrix(0.22121465,-0.97522514,0.97522514,0.22121465,0,0)"/>
      <path inkscape:connector-curvature="0" id="rect6705" d="m -2425.5981,230.17346 c 2.216,0 4,1.784 4,4 l 0,8 c 0,2.216 -1.784,4 -4,4 -2.216,0 -4,-1.784 -4,-4 l 0,-8 c 0,-2.216 1.784,-4 4,-4 z" style="fill:#5acfd6;fill-opacity:1;stroke:none;stroke-width:0.5;stroke-linecap:round;stroke-linejoin:round;stroke-miterlimit:4;stroke-dasharray:none;stroke-opacity:1" transform="matrix(0.22121465,-0.97522514,0.97522514,0.22121465,0,0)"/>
      <path inkscape:connector-curvature="0" id="rect6707" d="m -2428.5984,266.17346 3,0 c 0.554,0 1,0.446 1,1 l 0,2.00002 c 0,0.554 -0.446,1 -1,1 l -3,0 c -0.554,0 -1,-0.446 -1,-1 l 0,-2.00002 c 0,-0.554 0.446,-1 1,-1 z" style="fill:#d0e3eb;fill-opacity:1;stroke:none;stroke-width:4;stroke-opacity:1" transform="matrix(0.22121465,-0.97522514,0.97522514,0.22121465,0,0)"/>
      <path inkscape:connector-curvature="0" id="rect6709" d="m -2429.5984,265.17346 5,0 0,0.99998 -5,0 z" style="fill:#d0e3eb;fill-opacity:1;stroke:none;stroke-width:4;stroke-opacity:1" transform="matrix(0.22121465,-0.97522514,0.97522514,0.22121465,0,0)"/>
      <path inkscape:connector-curvature="0" id="rect6711" d="m -2429.5984,266.17346 5,0 0,0.99998 -5,0 z" style="fill:#273951;fill-opacity:1;stroke:none;stroke-width:4;stroke-opacity:1" transform="matrix(0.22121465,-0.97522514,0.97522514,0.22121465,0,0)"/>
      <path inkscape:connector-curvature="0" id="rect6713" d="m -2429.5981,237.17346 8,0 0,10.00254 -8,0 z" style="fill:#5acfd6;fill-opacity:1;stroke:none;stroke-width:0.5;stroke-linecap:round;stroke-linejoin:round;stroke-miterlimit:4;stroke-dasharray:none;stroke-opacity:1" transform="matrix(0.22121465,-0.97522514,0.97522514,0.22121465,0,0)"/>
      <path inkscape:connector-curvature="0" id="rect6715" d="m -2425.5981,231.67322 c 1.385,0 2.5,1.115 2.5,2.5 l 0,3.09017 c 0,1.385 -1.115,2.5 -2.5,2.5 -1.385,0 -2.5,-1.115 -2.5,-2.5 l 0,-3.09017 c 0,-1.385 1.115,-2.5 2.5,-2.5 z" style="fill:#ffd6b6;fill-opacity:1;stroke:none;stroke-width:0.5;stroke-linecap:round;stroke-linejoin:round;stroke-miterlimit:4;stroke-dasharray:none;stroke-opacity:1" transform="matrix(0.22121465,-0.97522514,0.97522514,0.22121465,0,0)"/>
      <path inkscape:connector-curvature="0" id="path6717" d="m -308.44531,2416.2832 a 2.0002,2.0002 0 0 0 -1.89649,1.4258 l -2.28711,7.2676 -7.44336,0 a 2.0002,2.0002 0 1 0 0,4 l 8.91016,0 a 2.0002,2.0002 0 0 0 1.9082,-1.4004 l 2.72852,-8.666 a 2.0002,2.0002 0 0 0 -1.91992,-2.627 z" style="color:#000000;font-style:normal;font-variant:normal;font-weight:normal;font-stretch:normal;font-size:medium;line-height:normal;font-family:sans-serif;text-indent:0;text-align:start;text-decoration:none;text-decoration-line:none;text-decoration-style:solid;text-decoration-color:#000000;letter-spacing:normal;word-spacing:normal;text-transform:none;direction:ltr;block-progression:tb;writing-mode:lr-tb;baseline-shift:baseline;text-anchor:start;white-space:normal;clip-rule:nonzero;display:inline;overflow:visible;visibility:visible;opacity:1;isolation:auto;mix-blend-mode:normal;color-interpolation:sRGB;color-interpolation-filters:linearRGB;solid-color:#000000;solid-opacity:1;fill:#ffd6b6;fill-opacity:1;fill-rule:evenodd;stroke:none;stroke-width:4;stroke-linecap:round;stroke-linejoin:round;stroke-miterlimit:4;stroke-dasharray:none;stroke-dashoffset:0;stroke-opacity:1;color-rendering:auto;image-rendering:auto;shape-rendering:auto;text-rendering:auto;enable-background:accumulate"/>
      <path style="color:#000000;font-style:normal;font-variant:normal;font-weight:normal;font-stretch:normal;font-size:medium;line-height:normal;font-family:sans-serif;text-indent:0;text-align:start;text-decoration:none;text-decoration-line:none;text-decoration-style:solid;text-decoration-color:#000000;letter-spacing:normal;word-spacing:normal;text-transform:none;direction:ltr;writing-mode:lr-tb;baseline-shift:baseline;text-anchor:start;white-space:normal;clip-rule:nonzero;display:inline;overflow:visible;visibility:visible;opacity:1;isolation:auto;mix-blend-mode:normal;color-interpolation:sRGB;color-interpolation-filters:linearRGB;solid-color:#000000;solid-opacity:1;fill:#ffcaa0;fill-opacity:1;fill-rule:evenodd;stroke:none;stroke-width:5;stroke-linecap:round;stroke-linejoin:round;stroke-miterlimit:4;stroke-dasharray:none;stroke-dashoffset:0;stroke-opacity:1;color-rendering:auto;image-rendering:auto;shape-rendering:auto;text-rendering:auto;enable-background:accumulate" d="m -315.94923,2418.4925 a 2.50025,2.50025 0 0 0 0.77678,0.3104 l 1.85517,0.4208 c 0.46843,-0.5 0.82754,-1.114 0.98914,-1.8264 l 0.22122,-0.9752 c 0.1616,-0.7125 0.10254,-1.4213 -0.10428,-2.0745 l -1.85517,-0.4208 a 2.50025,2.50025 0 0 0 -0.83468,-0.055 c 0.67962,0.4418 1.03664,1.2574 0.84368,2.108 l -0.22122,0.9753 c -0.19295,0.8506 -0.86694,1.4324 -1.67064,1.5376 z" id="path6719" inkscape:connector-curvature="0"/>
      <path sodipodi:nodetypes="cssssc" d="m -322.92599,2409.8715 6.04367,1.3709 c 2.58688,0.5868 4.20822,3.1596 3.62144,5.7464 l -0.085,0.3747 c -0.58679,2.5869 -3.1595,4.2083 -5.74639,3.6215 l -6.04366,-1.3709" class="st3" id="path6721" inkscape:connector-curvature="0" style="fill:#ffd6b6;fill-opacity:1"/>
      <path d="m -326.52199,2416.3824 -0.28389,1.2516 c -0.15585,0.6871 -0.79424,1.1281 -1.48133,0.9793 -0.0723,0.7256 0.44611,1.4178 1.17567,1.5833 l 2.55158,0.5788 c 0.79003,0.1792 1.49234,-0.3349 1.67154,-1.1248 l 0.56779,-2.5031 0.36501,-1.6092 1.05456,-4.649 c 0.0672,-0.2963 -0.0399,-0.5731 -0.33513,-0.64 l -2.91358,-0.6609 c -0.3936,-0.089 -0.86305,0.1409 -0.95264,0.5359 l -0.85178,3.755 z" class="st6" id="path6723" inkscape:connector-curvature="0" style="fill:#273951;fill-opacity:1" sodipodi:nodetypes="cscsssccsssscc"/>
      <path style="fill:#273951;fill-opacity:1;stroke:none;stroke-width:5;stroke-linecap:round;stroke-linejoin:round;stroke-miterlimit:4;stroke-dasharray:none;stroke-opacity:1" d="m -323.37938,2412.3653 c 0.45183,0.5839 1.09029,1.0294 1.86989,1.2063 l 3.21834,0.73 c 1.54231,0.3498 3.06483,-0.4367 3.71032,-1.8087 -0.60651,-0.5918 -1.36716,-1.0393 -2.25422,-1.2405 l -5.98398,-1.3574 z" id="path6725" inkscape:connector-curvature="0"/>
      <path inkscape:connector-curvature="0" id="circle6727" d="m -2423.7982,222.57336 a 1.1000206,1.1000206 0 0 1 -1.1,1.10002 1.1000206,1.1000206 0 0 1 -1.1,-1.10002 1.1000206,1.1000206 0 0 1 1.1,-1.10002 1.1000206,1.1000206 0 0 1 1.1,1.10002 z" style="fill:#ffd6b6;fill-opacity:1;stroke:none;stroke-width:5;stroke-linecap:round;stroke-linejoin:round;stroke-miterlimit:4;stroke-dasharray:none;stroke-opacity:1" transform="matrix(0.22121465,-0.97522514,0.97522514,0.22121465,0,0)"/>
      <path style="fill:none;fill-rule:evenodd;stroke:#273951;stroke-width:1.11337185px;stroke-linecap:butt;stroke-linejoin:miter;stroke-opacity:1" d="m -320.36938,2420.7005 0.2458,-1.0836" id="path6729" inkscape:connector-curvature="0"/>
      <path inkscape:connector-curvature="0" id="rect6731" d="m -2431.5984,220.37329 10.0002,0 0,1.10002 -10.0002,0 z" style="fill:#ffffff;fill-opacity:1;stroke:none;stroke-width:5;stroke-linecap:round;stroke-linejoin:round;stroke-miterlimit:4;stroke-dasharray:none;stroke-opacity:1" transform="matrix(0.22121465,-0.97522514,0.97522514,0.22121465,0,0)"/>
      <path inkscape:connector-curvature="0" id="rect6733" d="m -2429.5984,249.17346 5,0 0,7 -5,0 z" style="fill:#354d62;fill-opacity:1;stroke:none;stroke-width:5;stroke-linecap:round;stroke-linejoin:round;stroke-miterlimit:4;stroke-dasharray:none;stroke-opacity:1" transform="matrix(0.22121465,-0.97522514,0.97522514,0.22121465,0,0)"/>
    </g>
  </g>

	<metadata>
		<rdf:RDF xmlns:rdf="http://www.w3.org/1999/02/22-rdf-syntax-ns#" xmlns:rdfs="http://www.w3.org/2000/01/rdf-schema#" xmlns:dc="http://purl.org/dc/elements/1.1/">
			<rdf:Description about="https://iconscout.com/legal#licenses" dc:title="22" dc:description="22" dc:publisher="Iconscout" dc:date="2017-03-06" dc:format="image/svg+xml" dc:language="en">
				<dc:creator>
					<rdf:Bag>
						<rdf:li>Jemis Mali</rdf:li>
					</rdf:Bag>
				</dc:creator>
			</rdf:Description>
		</rdf:RDF>
    </metadata></svg>
