<svg id="Capa_1" enable-background="new 0 0 512 512" height="512" viewBox="0 0 512 512" width="512" xmlns="http://www.w3.org/2000/svg"><g><path d="m386 377h20c8.284 0 15-6.716 15-15s-6.716-15-15-15h-20c-8.284 0-15 6.716-15 15s6.716 15 15 15z"/><path d="m206 291h100c8.284 0 15-6.716 15-15s-6.716-15-15-15h-100c-8.284 0-15 6.716-15 15s6.716 15 15 15z"/><path d="m106 377h20c8.284 0 15-6.716 15-15s-6.716-15-15-15h-20c-8.284 0-15 6.716-15 15s6.716 15 15 15z"/><path d="m497 482h-16v-252h15c8.284 0 15-6.716 15-15v-60c0-8.284-6.716-15-15-15h-95v-125c0-8.284-6.716-15-15-15h-260c-8.284 0-15 6.716-15 15v125h-95c-8.284 0-15 6.716-15 15v60c0 8.284 6.716 15 15 15h15v252h-16c-8.284 0-15 6.716-15 15s6.716 15 15 15h482c8.284 0 15-6.716 15-15s-6.716-15-15-15zm-356-452h230v110h-230zm-110 140h450v30h-450zm420 60v192h-110v-85c0-8.284-6.716-15-15-15h-140c-8.284 0-15 6.716-15 15v95h-110v-202zm-390 232h110v20h-110zm140-110h40v130h-40zm70 130v-130h40v130zm70 0v-30h110v30z"/><path d="m341.248 59.409c-.781-3.839-4.058-6.674-7.969-6.896-3.902-.213-7.486 2.228-8.695 5.953-.028.085-.054.172-.079.258l-7.774 27.274-8.069-27.349c-.026-.088-.054-.176-.083-.263-1.245-3.715-4.866-6.132-8.755-5.866-3.91.262-7.158 3.131-7.916 7.065l-8.788 48.69c-.735 4.076 1.973 7.978 6.049 8.713 4.073.731 7.978-1.973 8.713-6.049l4.012-22.227 6.679 22.638c.026.09.055.179.084.268 1.185 3.522 4.467 5.88 8.179 5.88h.048c3.73-.021 7.011-2.419 8.162-5.968.027-.086.054-.171.078-.257l6.446-22.612 4.272 22.354c.777 4.069 4.712 6.743 8.774 5.958 4.068-.777 6.736-4.706 5.958-8.774z"/><path d="m215.581 77.5h-14.957c-4.143 0-7.5 3.357-7.5 7.5s3.357 7.5 7.5 7.5h6.381c-1.739 5.564-5.733 10-13.005 10-9.649 0-17.5-7.851-17.5-17.5s7.851-17.5 17.5-17.5c3.507 0 6.889 1.032 9.779 2.984 3.432 2.317 8.094 1.416 10.413-2.017 2.318-3.433 1.416-8.095-2.017-10.413-5.379-3.633-11.664-5.554-18.175-5.554-17.921 0-32.5 14.579-32.5 32.5s14.579 32.5 32.5 32.5c17.122 0 29.081-13.364 29.081-32.5 0-4.143-3.357-7.5-7.5-7.5z"/><path d="m272.997 53.842c-3.471-2.262-8.116-1.279-10.377 2.193l-9.564 14.691-9.681-14.827c-2.267-3.469-6.912-4.441-10.381-2.18-3.468 2.265-4.444 6.912-2.18 10.381l14.745 22.583-.057 23.298c-.01 4.143 3.34 7.509 7.481 7.519h.019c4.134 0 7.49-3.346 7.5-7.481l.057-23.326 14.63-22.474c2.261-3.472 1.28-8.117-2.192-10.377z"/></g></svg>