<?xml version="1.0" encoding="UTF-8" standalone="no"?> <svg xmlns="http://www.w3.org/2000/svg" data-name="Layer 1" viewBox="0 0 32 32"><path fill="#e5303e" d="M31.5,16a15.29684,15.29684,0,0,1-5,11.39.57582.57582,0,0,1-.11.11,14.92349,14.92349,0,0,1-2.82,2.02.423.423,0,0,1-.07.05,15.362,15.362,0,0,1-2.82,1.21,1.23374,1.23374,0,0,1-.18-.66V27.5h-9v2.62a1.23374,1.23374,0,0,1-.18.66A15.362,15.362,0,0,1,8.5,29.57a.423.423,0,0,1-.07-.05A14.92349,14.92349,0,0,1,5.61,27.5a.57582.57582,0,0,1-.11-.11A15.49642,15.49642,0,1,1,31.5,16Z"/><path fill="#fff" d="M28.5,16a4.09427,4.09427,0,0,1-.02.5,12.41835,12.41835,0,0,1-2.21,6.63,12.086,12.086,0,0,1-1.11,1.37c-.1.11-.21.23-.31995.34A12.2476,12.2476,0,0,1,23.5,26a12.5799,12.5799,0,0,1-2.59,1.5c-.14.06-.27.11-.41.16V27.5h-9v.16c-.14-.05-.27-.1-.41-.16A12.5799,12.5799,0,0,1,8.5,26a12.2476,12.2476,0,0,1-1.34-1.16c-.11-.11-.22-.23-.31995-.34a12.086,12.086,0,0,1-1.11-1.37A12.41835,12.41835,0,0,1,3.52,16.5,4.09427,4.09427,0,0,1,3.5,16a4.09327,4.09327,0,0,1,.02-.5,12.3574,12.3574,0,0,1,3.3-7.98c.11-.12.22-.24.34-.36s.24005-.23.36-.34a12.35748,12.35748,0,0,1,7.98-3.3A4.10621,4.10621,0,0,1,16,3.5a4.10621,4.10621,0,0,1,.5.02,12.35748,12.35748,0,0,1,7.98,3.3c.12.11.24.22.36.34s.23.24.34.36a12.3574,12.3574,0,0,1,3.3,7.98A4.09327,4.09327,0,0,1,28.5,16Z"/><path fill="#e0e0e2" d="M8.16 24.84c-.11-.11-.22-.23-.31995-.34a12.086 12.086 0 0 1-1.11-1.37A12.41835 12.41835 0 0 1 4.52 16.5 4.09427 4.09427 0 0 1 4.5 16a4.09327 4.09327 0 0 1 .02-.5 12.3574 12.3574 0 0 1 3.3-7.98c.11-.12.22-.24.34-.36s.24005-.23.36-.34a12.35748 12.35748 0 0 1 7.98-3.3A4.10621 4.10621 0 0 0 16 3.5a4.10621 4.10621 0 0 0-.5.02 12.35748 12.35748 0 0 0-7.98 3.3c-.12.11-.24.22-.36.34s-.23.24-.34.36a12.3574 12.3574 0 0 0-3.3 7.98 4.09327 4.09327 0 0 0-.02.5 4.09427 4.09427 0 0 0 .02.5 12.41835 12.41835 0 0 0 2.21 6.63A12.086 12.086 0 0 0 6.84 24.5c.1.11.21.23.31995.34A12.2476 12.2476 0 0 0 8.5 26a12.5799 12.5799 0 0 0 2.59 1.5c.14.06.27.11.41.16V27.5h.59A12.5799 12.5799 0 0 1 9.5 26 12.2476 12.2476 0 0 1 8.16 24.84zM20.5 27.66c.14-.05.27-.1.41-.16H20.5z"/><path fill="#3c3b41" d="M16.5 2.52V5.5a.5.5 0 0 1-1 0V2.52A4.10621 4.10621 0 0 1 16 2.5 4.10621 4.10621 0 0 1 16.5 2.52zM2.52 16.5H5.5a.5.5 0 0 0 0-1H2.52zM29.5 16a4.09427 4.09427 0 0 1-.02.5H26.5a.5.5 0 0 1 0-1h2.98A4.09327 4.09327 0 0 1 29.5 16zM8.93 8.93a.50225.50225 0 0 1-.35.15.50772.50772 0 0 1-.36-.15L5.82 6.52c.11-.12.22-.24.34-.36s.24005-.23.36-.34l2.41 2.4A.51347.51347 0 0 1 8.93 8.93zM26.18 6.52l-2.4 2.41a.5075.5075 0 0 1-.36.15.50228.50228 0 0 1-.35-.15.51344.51344 0 0 1 0-.71l2.41-2.4zM16 15.5a.49971.49971 0 0 1-.5-.5V8.5a.5.5 0 0 1 1 0V15A.49971.49971 0 0 1 16 15.5zM21.5 16.5H17a.5.5 0 0 1 0-1h4.5a.5.5 0 0 1 0 1z"/><circle cx="16" cy="16" r="1" fill="#3f6db4"/><path fill="#3f6db4" d="M31.5,16a15.29684,15.29684,0,0,1-5,11.39.57582.57582,0,0,1-.11.11,14.92349,14.92349,0,0,1-2.82,2.02.423.423,0,0,1-.07.05,15.362,15.362,0,0,1-2.82,1.21,1.23374,1.23374,0,0,1-.18-.66V27.66c.14-.05.27-.1.41-.16A12.5799,12.5799,0,0,0,23.5,26a12.2476,12.2476,0,0,0,1.34-1.16c.11-.11.22-.23.31995-.34a12.086,12.086,0,0,0,1.11-1.37,12.41835,12.41835,0,0,0,2.21-6.63,4.09427,4.09427,0,0,0,.02-.5,4.09327,4.09327,0,0,0-.02-.5,12.3574,12.3574,0,0,0-3.3-7.98c-.11-.12-.22-.24-.34-.36s-.24005-.23-.36-.34a12.35748,12.35748,0,0,0-7.98-3.3A4.10621,4.10621,0,0,0,16,3.5a4.10621,4.10621,0,0,0-.5.02,12.35748,12.35748,0,0,0-7.98,3.3c-.12.11-.24.22-.36.34s-.23.24-.34.36a12.3574,12.3574,0,0,0-3.3,7.98,4.09327,4.09327,0,0,0-.02.5,4.09427,4.09427,0,0,0,.02.5,12.41835,12.41835,0,0,0,2.21,6.63A12.086,12.086,0,0,0,6.84,24.5c.1.11.21.23.31995.34A12.2476,12.2476,0,0,0,8.5,26a12.5799,12.5799,0,0,0,2.59,1.5c.14.06.27.11.41.16v2.46a1.23374,1.23374,0,0,1-.18.66A15.362,15.362,0,0,1,8.5,29.57a.423.423,0,0,1-.07-.05A14.92349,14.92349,0,0,1,5.61,27.5a.57582.57582,0,0,1-.11-.11A15.49642,15.49642,0,1,1,31.5,16Z"/><path fill="#1f53a4" d="M9.5,29.57a.423.423,0,0,1-.07-.05A14.92349,14.92349,0,0,1,6.61,27.5a.57582.57582,0,0,1-.11-.11A15.47944,15.47944,0,0,1,16.5.52527C16.33252.5199,16.16882.5,16,.5A15.46453,15.46453,0,0,0,5.5,27.39a.57582.57582,0,0,0,.11.11,14.92349,14.92349,0,0,0,2.82,2.02.423.423,0,0,0,.07.05,15.362,15.362,0,0,0,2.82,1.21,1.13866,1.13866,0,0,0,.13623-.32074A15.66539,15.66539,0,0,1,9.5,29.57Z"/><path fill="#58565d" d="M28.5,25.5v1a1.003,1.003,0,0,1-1,1H4.5a1.003,1.003,0,0,1-1-1v-1a.804.804,0,0,1,.04-.27.99884.99884,0,0,1,.96-.73h23a.99884.99884,0,0,1,.96.73A.804.804,0,0,1,28.5,25.5Z"/><path fill="#3c3b41" d="M4.5,26.5v-1a.804.804,0,0,1,.04-.27.99884.99884,0,0,1,.96-.73h-1a.99884.99884,0,0,0-.96.73.804.804,0,0,0-.04.27v1a1.003,1.003,0,0,0,1,1h1A1.003,1.003,0,0,1,4.5,26.5Z"/><path fill="#8b8891" d="M11.5,21.88v8.24a1.23374,1.23374,0,0,1-.18.66,1.34577,1.34577,0,0,1-1.2.72H9.88A1.38276,1.38276,0,0,1,8.5,30.12V21.88A1.38276,1.38276,0,0,1,9.88,20.5h.24A1.38276,1.38276,0,0,1,11.5,21.88Z"/><path fill="#58565d" d="M9.5,30.12V21.88a1.379,1.379,0,0,1,1-1.31995A1.358,1.358,0,0,0,10.12,20.5H9.88A1.38276,1.38276,0,0,0,8.5,21.88v8.24A1.38276,1.38276,0,0,0,9.88,31.5h.24a1.37184,1.37184,0,0,0,.38831-.0575A1.37911,1.37911,0,0,1,9.5,30.12Z"/><rect width="3" height="8" x="5.5" y="22.5" fill="#8b8891" rx="1.414" ry="1.414"/><path fill="#58565d" d="M6.5,29.08575V23.91418a1.4095,1.4095,0,0,1,1-1.34534A1.39953,1.39953,0,0,0,7.08582,22.5H6.91418A1.41422,1.41422,0,0,0,5.5,23.91418v5.17157A1.41423,1.41423,0,0,0,6.91418,30.5h.17163A1.39953,1.39953,0,0,0,7.5,30.43115,1.40952,1.40952,0,0,1,6.5,29.08575Z"/><path fill="#8b8891" d="M23.5,21.88v8.24a1.38276,1.38276,0,0,1-1.38,1.38h-.24a1.34577,1.34577,0,0,1-1.2-.72,1.23374,1.23374,0,0,1-.18-.66V21.88a1.38276,1.38276,0,0,1,1.38-1.38h.24A1.38276,1.38276,0,0,1,23.5,21.88Z"/><rect width="3" height="3" x="24.5" y="24.5" fill="#3c3b41"/><path fill="#58565d" d="M21.68,30.78a1.23374,1.23374,0,0,1-.18-.66V21.88a1.379,1.379,0,0,1,1-1.31995A1.358,1.358,0,0,0,22.12,20.5h-.24a1.38276,1.38276,0,0,0-1.38,1.38v8.24a1.23374,1.23374,0,0,0,.18.66,1.34577,1.34577,0,0,0,1.2.72h.24a1.35758,1.35758,0,0,0,.3717-.0575A1.33071,1.33071,0,0,1,21.68,30.78Z"/><rect width="3" height="8" x="23.5" y="22.5" fill="#8b8891" rx="1.414" ry="1.414" transform="rotate(180 25 26.5)"/><path fill="#58565d" d="M24.5,29.08575V23.91418a1.4095,1.4095,0,0,1,1-1.34534A1.39953,1.39953,0,0,0,25.08582,22.5h-.17163A1.41422,1.41422,0,0,0,23.5,23.91418v5.17157A1.41423,1.41423,0,0,0,24.91418,30.5h.17163A1.39953,1.39953,0,0,0,25.5,30.43115,1.40952,1.40952,0,0,1,24.5,29.08575Z"/></svg>